G04 Layer: TopSilkscreenLayer*
G04 EasyEDA v6.5.50, 2025-06-01 17:24:59*
G04 69e65154b6b24189a8545f2fef81dcb9,5ab416c87bd24f2091f84acd62e1526b,10*
G04 Gerber Generator version 0.2*
G04 Scale: 100 percent, Rotated: No, Reflected: No *
G04 Dimensions in millimeters *
G04 leading zeros omitted , absolute positions ,4 integer and 5 decimal *
%FSLAX45Y45*%
%MOMM*%

%ADD10C,0.2540*%
%ADD11C,0.1524*%
%ADD12C,0.0117*%

%LPD*%
G36*
X-2717698Y-411835D02*
G01*
X-2866898Y-411886D01*
X-2918510Y-418744D01*
X-2952953Y-424688D01*
X-2974492Y-427939D01*
X-2977692Y-433070D01*
X-2992729Y-433070D01*
X-3013202Y-439521D01*
X-3023158Y-444550D01*
X-3034385Y-444550D01*
X-3037941Y-450291D01*
X-3049117Y-450291D01*
X-3059074Y-455117D01*
X-3071926Y-461772D01*
X-3080613Y-461772D01*
X-3080613Y-467512D01*
X-3088640Y-467512D01*
X-3119323Y-483819D01*
X-3153714Y-503377D01*
X-3167430Y-513435D01*
X-3296005Y-513435D01*
X-3351733Y-519328D01*
X-3397605Y-527913D01*
X-3423462Y-533857D01*
X-3443528Y-539038D01*
X-3486556Y-551281D01*
X-3498037Y-555853D01*
X-3518103Y-562762D01*
X-3555237Y-577951D01*
X-3615639Y-608939D01*
X-3628542Y-615238D01*
X-3628593Y-619556D01*
X-3640023Y-619556D01*
X-3640023Y-624332D01*
X-3655822Y-632307D01*
X-3690264Y-655015D01*
X-3693109Y-658266D01*
X-3733292Y-693216D01*
X-3744772Y-699262D01*
X-3819347Y-699871D01*
X-3848049Y-706069D01*
X-3865676Y-711352D01*
X-3876344Y-711352D01*
X-3962806Y-739495D01*
X-3994353Y-751992D01*
X-4014419Y-760780D01*
X-4074668Y-789990D01*
X-4098645Y-806043D01*
X-4102150Y-806043D01*
X-4162958Y-847648D01*
X-4172305Y-853389D01*
X-4195165Y-870508D01*
X-4229608Y-899007D01*
X-4271772Y-939444D01*
X-4312818Y-988110D01*
X-4332884Y-1015390D01*
X-4349038Y-1038402D01*
X-4362653Y-1038402D01*
X-4366209Y-1044143D01*
X-4379874Y-1044143D01*
X-4383430Y-1049883D01*
X-4394657Y-1049883D01*
X-4404614Y-1054963D01*
X-4436160Y-1067866D01*
X-4447641Y-1072134D01*
X-4493564Y-1094892D01*
X-4527956Y-1113993D01*
X-4574387Y-1143812D01*
X-4617618Y-1175816D01*
X-4625492Y-1183335D01*
X-4656937Y-1209090D01*
X-4708702Y-1261059D01*
X-4737709Y-1295196D01*
X-4772406Y-1341069D01*
X-4804918Y-1389837D01*
X-4816094Y-1404518D01*
X-4831994Y-1412798D01*
X-4840681Y-1419656D01*
X-4877968Y-1447241D01*
X-4912410Y-1478432D01*
X-4974844Y-1541881D01*
X-5007051Y-1581962D01*
X-5034584Y-1619351D01*
X-5042916Y-1629460D01*
X-5042916Y-1632661D01*
X-5059172Y-1656638D01*
X-5073040Y-1682445D01*
X-5075936Y-1685340D01*
X-5099608Y-1731264D01*
X-5112512Y-1759915D01*
X-5123942Y-1788617D01*
X-5129022Y-1798574D01*
X-5129022Y-1809800D01*
X-5134762Y-1813356D01*
X-5134762Y-1826209D01*
X-5139486Y-1831644D01*
X-5151729Y-1877568D01*
X-5157419Y-1906219D01*
X-5163261Y-1937816D01*
X-5166664Y-1969363D01*
X-5216499Y-2021027D01*
X-5228234Y-2035454D01*
X-5246624Y-2062175D01*
X-5246624Y-2068322D01*
X-5250942Y-2068372D01*
X-5257241Y-2081225D01*
X-5271008Y-2107031D01*
X-5273903Y-2109927D01*
X-5280304Y-2124252D01*
X-5298287Y-2160930D01*
X-5298287Y-2168804D01*
X-5303316Y-2178761D01*
X-5310428Y-2195982D01*
X-5315458Y-2205939D01*
X-5315458Y-2219401D01*
X-5319420Y-2223363D01*
X-5326888Y-2244750D01*
X-5326938Y-2257348D01*
X-5332679Y-2260854D01*
X-5332679Y-2282342D01*
X-5337911Y-2287778D01*
X-5340858Y-2316480D01*
X-5348427Y-2373833D01*
X-5348236Y-2459939D01*
X-5223560Y-2459939D01*
X-5217972Y-2329789D01*
X-5204206Y-2290673D01*
X-5182565Y-2221788D01*
X-5178298Y-2213203D01*
X-5160568Y-2175814D01*
X-5160518Y-2170176D01*
X-5143347Y-2144369D01*
X-5143347Y-2134463D01*
X-5131155Y-2112822D01*
X-5113578Y-2086965D01*
X-5096103Y-2064004D01*
X-5066690Y-2032304D01*
X-5057140Y-2013813D01*
X-5045811Y-2013813D01*
X-5045811Y-1991258D01*
X-5039614Y-1975104D01*
X-5037785Y-1914855D01*
X-5031841Y-1886153D01*
X-5026507Y-1861870D01*
X-5020716Y-1854606D01*
X-5013553Y-1831644D01*
X-4996688Y-1803755D01*
X-4999685Y-1800809D01*
X-4981702Y-1768551D01*
X-4962601Y-1741322D01*
X-4962601Y-1738223D01*
X-4934966Y-1702562D01*
X-4928565Y-1684172D01*
X-4913833Y-1662379D01*
X-4840681Y-1584909D01*
X-4764887Y-1518107D01*
X-4738674Y-1505458D01*
X-4721707Y-1484528D01*
X-4657953Y-1398473D01*
X-4611420Y-1346809D01*
X-4542332Y-1279042D01*
X-4492345Y-1244955D01*
X-4488230Y-1244955D01*
X-4479188Y-1237081D01*
X-4450486Y-1221079D01*
X-4404614Y-1198321D01*
X-4364431Y-1182827D01*
X-4307078Y-1163574D01*
X-4299153Y-1155700D01*
X-4277512Y-1146352D01*
X-4268622Y-1131265D01*
X-4244949Y-1105814D01*
X-4212793Y-1062786D01*
X-4127144Y-977595D01*
X-4028795Y-912977D01*
X-3974287Y-883970D01*
X-3935882Y-866292D01*
X-3929735Y-866292D01*
X-3919778Y-861212D01*
X-3905402Y-854811D01*
X-3871518Y-843330D01*
X-3844899Y-843330D01*
X-3839413Y-838200D01*
X-3799281Y-834136D01*
X-3697528Y-830427D01*
X-3655822Y-795629D01*
X-3635756Y-782066D01*
X-3612794Y-761492D01*
X-3546805Y-718515D01*
X-3535324Y-711504D01*
X-3489451Y-689254D01*
X-3455009Y-674420D01*
X-3420211Y-662584D01*
X-3408019Y-662584D01*
X-3404819Y-657453D01*
X-3357473Y-650494D01*
X-3351733Y-646176D01*
X-3288588Y-645058D01*
X-3248456Y-639826D01*
X-3205378Y-639622D01*
X-3186125Y-645160D01*
X-3139440Y-639368D01*
X-3079191Y-609701D01*
X-3076295Y-606348D01*
X-3013202Y-576224D01*
X-3003245Y-570788D01*
X-2992018Y-570788D01*
X-2988868Y-565708D01*
X-2973019Y-562660D01*
X-2950057Y-556006D01*
X-2924251Y-550468D01*
X-2906877Y-548182D01*
X-2890875Y-542086D01*
X-2841040Y-542086D01*
X-2820974Y-535940D01*
X-2746400Y-536346D01*
X-2694736Y-542442D01*
X-2654604Y-548284D01*
X-2628747Y-553923D01*
X-2582875Y-565607D01*
X-2572918Y-570788D01*
X-2564130Y-570788D01*
X-2554173Y-575868D01*
X-2525471Y-587349D01*
X-2470962Y-613918D01*
X-2442260Y-607720D01*
X-2413609Y-602081D01*
X-2379167Y-596646D01*
X-2321814Y-589737D01*
X-2238603Y-589940D01*
X-2163978Y-599948D01*
X-2145842Y-600913D01*
X-2141524Y-605231D01*
X-2122728Y-605231D01*
X-2119172Y-610971D01*
X-2102662Y-610971D01*
X-2099106Y-616712D01*
X-2087676Y-616712D01*
X-2063953Y-628192D01*
X-2056942Y-628192D01*
X-2034895Y-639064D01*
X-1979015Y-665988D01*
X-1929587Y-697026D01*
X-1882546Y-697026D01*
X-1876399Y-690829D01*
X-1759508Y-693521D01*
X-1727911Y-699770D01*
X-1702104Y-705967D01*
X-1673402Y-710895D01*
X-1650492Y-719480D01*
X-1620367Y-734314D01*
X-1613154Y-734364D01*
X-1546809Y-767892D01*
X-1492656Y-804113D01*
X-1489811Y-807516D01*
X-1466951Y-824534D01*
X-1385570Y-906526D01*
X-1377950Y-923645D01*
X-1365910Y-923645D01*
X-1332839Y-935024D01*
X-1304036Y-955700D01*
X-1281023Y-963828D01*
X-1253134Y-983894D01*
X-1236268Y-983894D01*
X-1232712Y-989634D01*
X-1213307Y-989634D01*
X-1209751Y-995375D01*
X-1197610Y-995375D01*
X-1177086Y-1001826D01*
X-1167130Y-1006856D01*
X-1155903Y-1006856D01*
X-1148384Y-1017422D01*
X-1116838Y-1027633D01*
X-1099616Y-1037691D01*
X-1093266Y-1035354D01*
X-1039418Y-1063244D01*
X-995070Y-1088593D01*
X-944727Y-1125626D01*
X-910336Y-1154582D01*
X-834999Y-1229207D01*
X-792683Y-1283817D01*
X-779780Y-1302105D01*
X-779780Y-1305610D01*
X-763727Y-1329588D01*
X-733247Y-1392732D01*
X-722376Y-1414780D01*
X-722376Y-1424584D01*
X-717804Y-1430020D01*
X-710539Y-1452981D01*
X-695706Y-1487373D01*
X-683666Y-1503324D01*
X-657707Y-1536141D01*
X-647700Y-1550517D01*
X-621995Y-1582064D01*
X-593293Y-1624126D01*
X-593293Y-1626260D01*
X-575208Y-1656638D01*
X-558850Y-1687372D01*
X-558850Y-1695399D01*
X-553110Y-1695399D01*
X-553110Y-1703425D01*
X-542340Y-1725523D01*
X-530758Y-1751330D01*
X-519074Y-1782876D01*
X-512165Y-1805838D01*
X-507644Y-1817319D01*
X-504037Y-1834540D01*
X-499109Y-1860346D01*
X-492353Y-1877568D01*
X-487629Y-1903374D01*
X-476046Y-1934921D01*
X-461518Y-1989429D01*
X-452831Y-2038197D01*
X-447090Y-2107031D01*
X-450037Y-2210358D01*
X-456133Y-2241905D01*
X-464921Y-2276297D01*
X-467614Y-2299258D01*
X-472795Y-2304745D01*
X-472795Y-2320493D01*
X-477774Y-2333701D01*
X-490575Y-2379573D01*
X-495757Y-2389581D01*
X-495757Y-2398318D01*
X-500786Y-2408275D01*
X-518007Y-2451303D01*
X-537210Y-2491486D01*
X-540207Y-2494330D01*
X-548741Y-2511552D01*
X-568452Y-2543098D01*
X-583234Y-2566060D01*
X-620217Y-2614828D01*
X-654659Y-2655011D01*
X-697992Y-2696159D01*
X-750112Y-2744419D01*
X-778306Y-2757779D01*
X-792683Y-2767634D01*
X-827074Y-2786989D01*
X-829970Y-2789986D01*
X-890219Y-2820009D01*
X-897382Y-2819958D01*
X-897382Y-2825699D01*
X-906068Y-2825699D01*
X-916025Y-2830779D01*
X-930351Y-2836824D01*
X-953312Y-2844088D01*
X-958799Y-2848660D01*
X-971651Y-2848660D01*
X-975207Y-2854401D01*
X-991717Y-2854401D01*
X-994867Y-2859481D01*
X-1013561Y-2862681D01*
X-1068070Y-2874772D01*
X-1099616Y-2880004D01*
X-1154176Y-2885998D01*
X-1166164Y-2888691D01*
X-1341983Y-2889250D01*
X-1345285Y-2894533D01*
X-1553464Y-2894533D01*
X-1557223Y-2769768D01*
X-1557223Y-2706420D01*
X-1566113Y-2672283D01*
X-1583385Y-2645410D01*
X-1608277Y-2622397D01*
X-1630375Y-2611221D01*
X-1663344Y-2604414D01*
X-1676298Y-2608326D01*
X-1689201Y-2620162D01*
X-1689201Y-3174847D01*
X-1674418Y-3190798D01*
X-1636115Y-3188004D01*
X-1605229Y-3172358D01*
X-1576984Y-3144113D01*
X-1558950Y-3105556D01*
X-1554784Y-2961995D01*
X-1554378Y-2928416D01*
X-1133144Y-2934157D01*
X-1120800Y-2938068D01*
X-1079550Y-2943199D01*
X-1045108Y-2948736D01*
X-1016457Y-2955137D01*
X-997762Y-2958287D01*
X-994613Y-2963418D01*
X-978052Y-2963418D01*
X-974496Y-2969158D01*
X-963269Y-2969158D01*
X-953312Y-2973984D01*
X-940511Y-2980639D01*
X-931722Y-2980639D01*
X-921766Y-2985668D01*
X-904544Y-2992780D01*
X-894587Y-2997860D01*
X-885901Y-2997860D01*
X-885901Y-3003550D01*
X-874420Y-3003550D01*
X-874420Y-3009290D01*
X-865733Y-3009290D01*
X-852932Y-3016504D01*
X-850036Y-3019348D01*
X-824230Y-3032709D01*
X-801319Y-3045155D01*
X-795528Y-3049727D01*
X-766775Y-3068116D01*
X-733044Y-3093923D01*
X-718058Y-3104896D01*
X-633018Y-3188614D01*
X-588568Y-3245967D01*
X-571042Y-3271824D01*
X-557987Y-3294735D01*
X-545947Y-3317697D01*
X-543052Y-3320592D01*
X-530148Y-3345484D01*
X-530148Y-3353562D01*
X-524408Y-3353562D01*
X-524408Y-3361283D01*
X-516432Y-3377946D01*
X-506628Y-3400907D01*
X-484835Y-3455415D01*
X-466801Y-3512261D01*
X-458114Y-3552951D01*
X-449935Y-3613200D01*
X-449834Y-3697071D01*
X-464921Y-3811168D01*
X-469646Y-3842715D01*
X-475284Y-3871417D01*
X-486765Y-3917289D01*
X-493268Y-3940251D01*
X-496163Y-3954576D01*
X-500837Y-3966057D01*
X-507746Y-3991914D01*
X-512927Y-4001871D01*
X-512927Y-4013047D01*
X-518668Y-4016603D01*
X-518668Y-4030624D01*
X-523341Y-4030624D01*
X-530606Y-4058970D01*
X-541629Y-4080611D01*
X-541629Y-4088079D01*
X-546862Y-4098036D01*
X-590854Y-4186986D01*
X-610311Y-4218533D01*
X-614476Y-4226966D01*
X-652729Y-4284522D01*
X-665734Y-4296003D01*
X-699414Y-4337151D01*
X-699414Y-4351578D01*
X-705154Y-4355134D01*
X-705154Y-4371695D01*
X-710895Y-4375200D01*
X-710895Y-4389323D01*
X-715975Y-4399280D01*
X-727303Y-4427931D01*
X-739597Y-4452874D01*
X-739597Y-4460951D01*
X-745337Y-4460951D01*
X-745337Y-4472432D01*
X-749655Y-4472533D01*
X-763676Y-4501083D01*
X-767384Y-4501083D01*
X-774090Y-4515916D01*
X-809548Y-4562805D01*
X-841451Y-4600041D01*
X-882903Y-4641697D01*
X-888796Y-4641697D01*
X-888796Y-4635906D01*
X-909980Y-4659376D01*
X-934313Y-4676140D01*
X-937666Y-4686757D01*
X-984859Y-4723942D01*
X-1037386Y-4759096D01*
X-1062329Y-4773574D01*
X-1096772Y-4790186D01*
X-1119733Y-4799990D01*
X-1142187Y-4811166D01*
X-1147318Y-4806035D01*
X-1184554Y-4819548D01*
X-1195120Y-4819548D01*
X-1198422Y-4828133D01*
X-1209751Y-4828133D01*
X-1213307Y-4833874D01*
X-1229817Y-4833874D01*
X-1233373Y-4839614D01*
X-1252778Y-4839614D01*
X-1255877Y-4844592D01*
X-1283258Y-4848606D01*
X-1311960Y-4853482D01*
X-1337767Y-4857597D01*
X-1348486Y-4866894D01*
X-1374952Y-4901336D01*
X-1392275Y-4921148D01*
X-1418082Y-4949799D01*
X-1446834Y-4978755D01*
X-1484071Y-5010353D01*
X-1486966Y-5013452D01*
X-1507032Y-5027371D01*
X-1518158Y-5037582D01*
X-1525676Y-5037582D01*
X-1525676Y-5042357D01*
X-1541424Y-5050282D01*
X-1556969Y-5060746D01*
X-1613154Y-5088585D01*
X-1659077Y-5106924D01*
X-1684883Y-5115102D01*
X-1702104Y-5120132D01*
X-1727911Y-5126075D01*
X-1762353Y-5133543D01*
X-1891436Y-5132527D01*
X-1977542Y-5150154D01*
X-1987092Y-5158536D01*
X-2006193Y-5169357D01*
X-2052116Y-5191861D01*
X-2075078Y-5201564D01*
X-2085035Y-5206847D01*
X-2096262Y-5206847D01*
X-2099360Y-5211927D01*
X-2115210Y-5215077D01*
X-2163978Y-5227370D01*
X-2198420Y-5232755D01*
X-2235708Y-5235854D01*
X-2248154Y-5242001D01*
X-2298852Y-5238292D01*
X-2341880Y-5232958D01*
X-2373426Y-5227218D01*
X-2402128Y-5220868D01*
X-2420823Y-5217668D01*
X-2423972Y-5212588D01*
X-2437638Y-5212588D01*
X-2441194Y-5206847D01*
X-2455265Y-5206847D01*
X-2466848Y-5199684D01*
X-2470962Y-5205425D01*
X-2507640Y-5224068D01*
X-2515463Y-5224068D01*
X-2515463Y-5229809D01*
X-2526588Y-5229809D01*
X-2529687Y-5234787D01*
X-2547467Y-5238343D01*
X-2563469Y-5249722D01*
X-2602941Y-5263388D01*
X-2625902Y-5269687D01*
X-2651709Y-5273294D01*
X-2683256Y-5278272D01*
X-2749245Y-5284927D01*
X-2849372Y-5281371D01*
X-2852775Y-5275834D01*
X-2927146Y-5273090D01*
X-2951530Y-5269331D01*
X-2954731Y-5264200D01*
X-2966872Y-5264200D01*
X-2987395Y-5257698D01*
X-2998825Y-5253532D01*
X-3021787Y-5246624D01*
X-3047593Y-5236210D01*
X-3099257Y-5211267D01*
X-3102152Y-5208270D01*
X-3127654Y-5193944D01*
X-3138220Y-5184698D01*
X-3170986Y-5180736D01*
X-3182467Y-5179618D01*
X-3262782Y-5183886D01*
X-3351733Y-5175402D01*
X-3374694Y-5172049D01*
X-3386175Y-5167071D01*
X-3424936Y-5160314D01*
X-3428085Y-5155184D01*
X-3439312Y-5155184D01*
X-3449269Y-5150154D01*
X-3463594Y-5144312D01*
X-3483711Y-5136997D01*
X-3549700Y-5103012D01*
X-3558743Y-5094935D01*
X-3562756Y-5094935D01*
X-3604209Y-5066334D01*
X-3628085Y-5047640D01*
X-3659733Y-5023358D01*
X-3663238Y-5017668D01*
X-3684524Y-5008321D01*
X-3696004Y-5003546D01*
X-3716070Y-5000193D01*
X-3818178Y-4997602D01*
X-3824884Y-4993436D01*
X-3850894Y-4988509D01*
X-3869588Y-4985308D01*
X-3872788Y-4980228D01*
X-3886454Y-4980228D01*
X-3889959Y-4974488D01*
X-3901186Y-4974488D01*
X-3911142Y-4969408D01*
X-3925519Y-4963617D01*
X-3958488Y-4948224D01*
X-3958488Y-4940046D01*
X-3966819Y-4940046D01*
X-4011574Y-4925771D01*
X-4040276Y-4903063D01*
X-4091889Y-4867351D01*
X-4134916Y-4832807D01*
X-4210964Y-4755388D01*
X-4210964Y-4744313D01*
X-4239666Y-4712919D01*
X-4239666Y-4707686D01*
X-4250436Y-4707686D01*
X-4272635Y-4683099D01*
X-4298442Y-4675530D01*
X-4311650Y-4670348D01*
X-4322927Y-4670348D01*
X-4332884Y-4665167D01*
X-4358690Y-4657852D01*
X-4364431Y-4654346D01*
X-4387392Y-4646930D01*
X-4406036Y-4638548D01*
X-4406036Y-4633518D01*
X-4436160Y-4623765D01*
X-4454042Y-4612995D01*
X-4463440Y-4612995D01*
X-4463440Y-4607255D01*
X-4469333Y-4607255D01*
X-4505502Y-4582871D01*
X-4530699Y-4562805D01*
X-4582007Y-4514037D01*
X-4627880Y-4466640D01*
X-4639868Y-4450080D01*
X-4674260Y-4405172D01*
X-4695596Y-4385868D01*
X-4728768Y-4339183D01*
X-4746294Y-4321810D01*
X-4814874Y-4260799D01*
X-4842916Y-4234586D01*
X-4872837Y-4214723D01*
X-4895189Y-4189120D01*
X-4915255Y-4151629D01*
X-4957572Y-4090009D01*
X-4974082Y-4054703D01*
X-4981194Y-4024884D01*
X-4988306Y-4024884D01*
X-4999126Y-4003344D01*
X-5010708Y-3966057D01*
X-5017617Y-3934510D01*
X-5022850Y-3913733D01*
X-5026558Y-3853027D01*
X-5034330Y-3850081D01*
X-5034330Y-3823106D01*
X-5070195Y-3785209D01*
X-5084724Y-3768140D01*
X-5114645Y-3729532D01*
X-5114645Y-3726281D01*
X-5134762Y-3696462D01*
X-5134762Y-3691534D01*
X-5146344Y-3675278D01*
X-5154980Y-3650487D01*
X-5168544Y-3621786D01*
X-5183073Y-3587394D01*
X-5197652Y-3547211D01*
X-5206644Y-3512769D01*
X-5214518Y-3472637D01*
X-5216448Y-3415233D01*
X-5214975Y-3357879D01*
X-5209032Y-3329178D01*
X-5203037Y-3303371D01*
X-5197246Y-3286150D01*
X-5182311Y-3248863D01*
X-5172049Y-3230219D01*
X-5160111Y-3209137D01*
X-5136743Y-3174288D01*
X-5092598Y-3131261D01*
X-5050891Y-3108960D01*
X-5030012Y-3103930D01*
X-4414875Y-3104134D01*
X-4406341Y-3087624D01*
X-4385868Y-3069640D01*
X-4373067Y-3066491D01*
X-4195775Y-3068116D01*
X-4185056Y-3113379D01*
X-4170172Y-3162808D01*
X-4144314Y-3228797D01*
X-4105046Y-3306419D01*
X-4072839Y-3357879D01*
X-4023258Y-3423869D01*
X-3928160Y-3519068D01*
X-3858768Y-3570833D01*
X-3805986Y-3603498D01*
X-3753358Y-3631590D01*
X-3687267Y-3659886D01*
X-3614775Y-3683050D01*
X-3546805Y-3698392D01*
X-3463594Y-3708755D01*
X-3386175Y-3712514D01*
X-3297224Y-3706215D01*
X-3224784Y-3695192D01*
X-3159861Y-3680561D01*
X-3084931Y-3655415D01*
X-3016046Y-3625850D01*
X-2912719Y-3572357D01*
X-2687828Y-3442665D01*
X-2607310Y-3402329D01*
X-2528366Y-3368598D01*
X-2450896Y-3342436D01*
X-2402128Y-3328162D01*
X-2346553Y-3316274D01*
X-2336038Y-3316274D01*
X-2313178Y-3303574D01*
X-2227122Y-3299815D01*
X-2099462Y-3292297D01*
X-2099462Y-2504998D01*
X-2143912Y-2501646D01*
X-2204161Y-2498344D01*
X-2293112Y-2489606D01*
X-2370582Y-2475534D01*
X-2445156Y-2455926D01*
X-2557018Y-2418029D01*
X-2668676Y-2363470D01*
X-2781960Y-2300732D01*
X-2849676Y-2259787D01*
X-2932887Y-2212492D01*
X-3019552Y-2169109D01*
X-3079902Y-2143353D01*
X-3129838Y-2125726D01*
X-3155645Y-2125726D01*
X-3202533Y-2105964D01*
X-3248456Y-2097328D01*
X-3289350Y-2091334D01*
X-3389020Y-2084933D01*
X-3472230Y-2088692D01*
X-3526739Y-2094484D01*
X-3598468Y-2108758D01*
X-3658717Y-2126437D01*
X-3732885Y-2155190D01*
X-3802126Y-2190546D01*
X-3858717Y-2226157D01*
X-3925519Y-2276144D01*
X-4007967Y-2356662D01*
X-4056532Y-2416911D01*
X-4098544Y-2480005D01*
X-4130548Y-2537409D01*
X-4161688Y-2609342D01*
X-4181957Y-2669895D01*
X-4196130Y-2726740D01*
X-4202734Y-2759710D01*
X-4366158Y-2759710D01*
X-4384548Y-2750464D01*
X-4400804Y-2735326D01*
X-4409135Y-2719425D01*
X-4996129Y-2722981D01*
X-5041493Y-2716377D01*
X-5069789Y-2707284D01*
X-5112004Y-2684932D01*
X-5127294Y-2672232D01*
X-5155539Y-2646375D01*
X-5176926Y-2614828D01*
X-5197449Y-2571394D01*
X-5223052Y-2488590D01*
X-5223560Y-2459939D01*
X-5348236Y-2459939D01*
X-5348224Y-2465679D01*
X-5341366Y-2520188D01*
X-5336032Y-2548839D01*
X-5330190Y-2568956D01*
X-5326481Y-2583281D01*
X-5321808Y-2594762D01*
X-5314899Y-2614828D01*
X-5310327Y-2626309D01*
X-5295290Y-2657856D01*
X-5280355Y-2683713D01*
X-5262778Y-2709519D01*
X-5245404Y-2732481D01*
X-5210759Y-2768803D01*
X-5170576Y-2799232D01*
X-5144770Y-2814116D01*
X-5113223Y-2829153D01*
X-5101742Y-2833674D01*
X-5055158Y-2845765D01*
X-4406188Y-2845765D01*
X-4397959Y-2830017D01*
X-4381652Y-2814929D01*
X-4369104Y-2808478D01*
X-4207459Y-2808478D01*
X-4211015Y-2817723D01*
X-4214571Y-2918917D01*
X-4213610Y-2930398D01*
X-4141673Y-2930398D01*
X-4139234Y-2826816D01*
X-4133189Y-2778353D01*
X-4121404Y-2721000D01*
X-4101592Y-2655011D01*
X-4075582Y-2589022D01*
X-4041292Y-2523032D01*
X-3993286Y-2451303D01*
X-3944924Y-2393950D01*
X-3885234Y-2336546D01*
X-3836568Y-2297633D01*
X-3790645Y-2267102D01*
X-3738321Y-2237333D01*
X-3667302Y-2205228D01*
X-3591458Y-2180285D01*
X-3520998Y-2166162D01*
X-3457854Y-2158847D01*
X-3320186Y-2159203D01*
X-3251301Y-2169058D01*
X-3196793Y-2180844D01*
X-3109163Y-2209190D01*
X-3044748Y-2236774D01*
X-2962960Y-2277821D01*
X-2714802Y-2420467D01*
X-2638907Y-2458466D01*
X-2557018Y-2493518D01*
X-2455418Y-2527452D01*
X-2361946Y-2550007D01*
X-2293112Y-2561590D01*
X-2176170Y-2573223D01*
X-2174036Y-2573223D01*
X-2174036Y-2694635D01*
X-2361946Y-2691079D01*
X-2485339Y-2682087D01*
X-2565654Y-2673350D01*
X-2648864Y-2661920D01*
X-2766466Y-2642260D01*
X-2995980Y-2598877D01*
X-3116427Y-2578912D01*
X-3163722Y-2575255D01*
X-3187192Y-2591511D01*
X-3244342Y-2651404D01*
X-3252215Y-2666542D01*
X-3249117Y-2704846D01*
X-3212134Y-2745384D01*
X-3204210Y-2745384D01*
X-3183077Y-2731008D01*
X-3175000Y-2731008D01*
X-3176270Y-2677160D01*
X-3156305Y-2649270D01*
X-3140760Y-2647442D01*
X-2984500Y-2673604D01*
X-2772206Y-2713990D01*
X-2654604Y-2733649D01*
X-2568498Y-2745333D01*
X-2485339Y-2753817D01*
X-2361946Y-2762504D01*
X-2207056Y-2768295D01*
X-2173986Y-2768346D01*
X-2175459Y-3027934D01*
X-2229967Y-3029204D01*
X-2382012Y-3035300D01*
X-2499664Y-3043732D01*
X-2577134Y-3052673D01*
X-2720390Y-3072790D01*
X-3004769Y-3126638D01*
X-3107842Y-3143808D01*
X-3153460Y-3150006D01*
X-3166770Y-3134106D01*
X-3178505Y-3112160D01*
X-3176066Y-3105404D01*
X-3184042Y-3089656D01*
X-3208274Y-3089605D01*
X-3227070Y-3078175D01*
X-3238550Y-3078175D01*
X-3255619Y-3105099D01*
X-3255619Y-3125825D01*
X-3239363Y-3151428D01*
X-3178454Y-3213150D01*
X-3158134Y-3221685D01*
X-3104997Y-3215741D01*
X-3030423Y-3203905D01*
X-2740660Y-3149650D01*
X-2637383Y-3132582D01*
X-2505405Y-3115513D01*
X-2379167Y-3106928D01*
X-2212797Y-3101136D01*
X-2174036Y-3101136D01*
X-2174036Y-3223158D01*
X-2301697Y-3236112D01*
X-2379167Y-3250488D01*
X-2450896Y-3267964D01*
X-2539847Y-3296920D01*
X-2611526Y-3325368D01*
X-2677515Y-3356711D01*
X-2757881Y-3400501D01*
X-2935732Y-3503523D01*
X-3044748Y-3559860D01*
X-3110738Y-3588054D01*
X-3182467Y-3611676D01*
X-3242716Y-3625850D01*
X-3308705Y-3636162D01*
X-3483711Y-3636162D01*
X-3532479Y-3628644D01*
X-3584092Y-3616960D01*
X-3635756Y-3602431D01*
X-3700221Y-3577590D01*
X-3773474Y-3540302D01*
X-3839413Y-3496513D01*
X-3893870Y-3452571D01*
X-3954932Y-3391712D01*
X-4002532Y-3332073D01*
X-4038193Y-3277565D01*
X-4063288Y-3231642D01*
X-4090162Y-3173425D01*
X-4110888Y-3114040D01*
X-4127550Y-3048050D01*
X-4136948Y-2993542D01*
X-4141673Y-2930398D01*
X-4213610Y-2930398D01*
X-4207916Y-2997911D01*
X-4204512Y-3015030D01*
X-4377639Y-3015030D01*
X-4393692Y-3006750D01*
X-4411268Y-2986735D01*
X-4415231Y-2974238D01*
X-5055819Y-2978302D01*
X-5065522Y-2983484D01*
X-5080304Y-2983484D01*
X-5090261Y-2988513D01*
X-5113223Y-2995371D01*
X-5172049Y-3024479D01*
X-5172049Y-3028950D01*
X-5179720Y-3030829D01*
X-5205018Y-3050895D01*
X-5233720Y-3079597D01*
X-5268163Y-3125419D01*
X-5274411Y-3136950D01*
X-5286248Y-3157677D01*
X-5291886Y-3168548D01*
X-5304739Y-3197199D01*
X-5308955Y-3208680D01*
X-5315458Y-3224479D01*
X-5320436Y-3237382D01*
X-5326938Y-3257854D01*
X-5326938Y-3270046D01*
X-5332069Y-3273196D01*
X-5335320Y-3291890D01*
X-5341366Y-3323437D01*
X-5347055Y-3363620D01*
X-5349443Y-3461156D01*
X-5343956Y-3498443D01*
X-5332069Y-3558692D01*
X-5326938Y-3568649D01*
X-5326938Y-3577742D01*
X-5313121Y-3619042D01*
X-5303469Y-3644747D01*
X-5293156Y-3667709D01*
X-5266537Y-3722217D01*
X-5252212Y-3747008D01*
X-5211622Y-3807510D01*
X-5169814Y-3851300D01*
X-5163210Y-3897223D01*
X-5157419Y-3928770D01*
X-5151729Y-3957472D01*
X-5145582Y-3980434D01*
X-5141112Y-3991914D01*
X-5133746Y-4017721D01*
X-5129022Y-4023156D01*
X-5129022Y-4033570D01*
X-5123942Y-4043527D01*
X-5112562Y-4072229D01*
X-5070195Y-4156811D01*
X-5065877Y-4156862D01*
X-5065877Y-4162755D01*
X-5024780Y-4224274D01*
X-5021275Y-4227118D01*
X-5001564Y-4252976D01*
X-4964023Y-4295749D01*
X-4900777Y-4359097D01*
X-4869383Y-4384852D01*
X-4866487Y-4388053D01*
X-4846421Y-4401870D01*
X-4843526Y-4405274D01*
X-4823460Y-4419142D01*
X-4805476Y-4436567D01*
X-4754981Y-4511141D01*
X-4751578Y-4514037D01*
X-4731867Y-4539843D01*
X-4691481Y-4585462D01*
X-4674158Y-4602937D01*
X-4631283Y-4640224D01*
X-4619752Y-4650790D01*
X-4556658Y-4697780D01*
X-4510735Y-4726787D01*
X-4440174Y-4762195D01*
X-4431842Y-4762195D01*
X-4431842Y-4767935D01*
X-4420717Y-4767935D01*
X-4417161Y-4773625D01*
X-4405985Y-4773625D01*
X-4383176Y-4785106D01*
X-4371949Y-4785106D01*
X-4368393Y-4790846D01*
X-4354220Y-4790846D01*
X-4340656Y-4799736D01*
X-4324756Y-4823866D01*
X-4295851Y-4858258D01*
X-4249674Y-4906162D01*
X-4201718Y-4946599D01*
X-4153357Y-4983073D01*
X-4148531Y-4983073D01*
X-4141317Y-4991811D01*
X-4122013Y-5000955D01*
X-4122013Y-5006035D01*
X-4115714Y-5006035D01*
X-4100525Y-5016804D01*
X-4077563Y-5029860D01*
X-4048861Y-5045405D01*
X-4025900Y-5057444D01*
X-3982872Y-5077256D01*
X-3937965Y-5095087D01*
X-3871010Y-5115560D01*
X-3839413Y-5121046D01*
X-3750513Y-5126329D01*
X-3732276Y-5129580D01*
X-3730396Y-5133746D01*
X-3684524Y-5170119D01*
X-3672941Y-5179568D01*
X-3657244Y-5187746D01*
X-3657244Y-5192522D01*
X-3651199Y-5192522D01*
X-3618534Y-5214264D01*
X-3555390Y-5244795D01*
X-3543960Y-5249316D01*
X-3516731Y-5261356D01*
X-3509213Y-5261356D01*
X-3503777Y-5266182D01*
X-3463594Y-5278374D01*
X-3429203Y-5287314D01*
X-3389020Y-5295392D01*
X-3340252Y-5303977D01*
X-3262782Y-5310327D01*
X-3172815Y-5309616D01*
X-3136798Y-5334101D01*
X-3094177Y-5356047D01*
X-3086354Y-5356047D01*
X-3086354Y-5361736D01*
X-3075228Y-5361736D01*
X-3071672Y-5367477D01*
X-3058820Y-5367477D01*
X-3053334Y-5372252D01*
X-3027527Y-5379618D01*
X-3016046Y-5384292D01*
X-2984500Y-5390896D01*
X-2973019Y-5395823D01*
X-2912770Y-5404764D01*
X-2852521Y-5411673D01*
X-2729179Y-5411825D01*
X-2668930Y-5404764D01*
X-2631643Y-5398871D01*
X-2608681Y-5395620D01*
X-2603246Y-5390438D01*
X-2584653Y-5390438D01*
X-2581097Y-5384698D01*
X-2567025Y-5384698D01*
X-2557018Y-5379669D01*
X-2534107Y-5372862D01*
X-2519730Y-5366715D01*
X-2508250Y-5362346D01*
X-2455519Y-5338318D01*
X-2421839Y-5350306D01*
X-2407564Y-5350306D01*
X-2402128Y-5355437D01*
X-2379167Y-5358638D01*
X-2336139Y-5365851D01*
X-2218486Y-5365851D01*
X-2163978Y-5358942D01*
X-2132431Y-5352846D01*
X-2110892Y-5349697D01*
X-2107692Y-5344566D01*
X-2088286Y-5344566D01*
X-2084781Y-5338826D01*
X-2071116Y-5338826D01*
X-2067560Y-5333085D01*
X-2057857Y-5333085D01*
X-1997608Y-5309006D01*
X-1937359Y-5277916D01*
X-1895652Y-5255310D01*
X-1837131Y-5262118D01*
X-1776679Y-5258409D01*
X-1725066Y-5252923D01*
X-1693519Y-5247081D01*
X-1667662Y-5240832D01*
X-1648968Y-5237784D01*
X-1645818Y-5232654D01*
X-1629308Y-5232654D01*
X-1625752Y-5226913D01*
X-1612900Y-5226913D01*
X-1607413Y-5222341D01*
X-1584502Y-5215077D01*
X-1561541Y-5204714D01*
X-1504137Y-5176164D01*
X-1478330Y-5162397D01*
X-1467205Y-5152339D01*
X-1462786Y-5152339D01*
X-1443888Y-5139436D01*
X-1398016Y-5105298D01*
X-1369314Y-5079695D01*
X-1337767Y-5050282D01*
X-1297482Y-5004612D01*
X-1277518Y-4977587D01*
X-1268882Y-4973675D01*
X-1243076Y-4969002D01*
X-1214374Y-4962601D01*
X-1192834Y-4959502D01*
X-1189685Y-4954371D01*
X-1173124Y-4954371D01*
X-1169568Y-4948631D01*
X-1155496Y-4948631D01*
X-1145540Y-4943195D01*
X-1108252Y-4931054D01*
X-1082446Y-4920538D01*
X-1059484Y-4910531D01*
X-1004976Y-4883607D01*
X-956208Y-4856073D01*
X-907440Y-4824018D01*
X-867257Y-4793488D01*
X-818489Y-4752136D01*
X-750519Y-4686147D01*
X-709371Y-4637379D01*
X-675030Y-4591507D01*
X-662127Y-4572558D01*
X-662127Y-4568952D01*
X-653948Y-4559909D01*
X-607618Y-4466132D01*
X-607618Y-4460900D01*
X-596646Y-4436567D01*
X-589686Y-4413605D01*
X-584657Y-4400448D01*
X-584657Y-4389678D01*
X-580390Y-4387799D01*
X-548894Y-4350512D01*
X-540004Y-4341876D01*
X-512622Y-4304588D01*
X-505510Y-4295851D01*
X-487121Y-4269130D01*
X-487121Y-4263491D01*
X-482701Y-4261561D01*
X-459130Y-4221378D01*
X-427177Y-4158284D01*
X-410667Y-4120997D01*
X-397611Y-4086555D01*
X-392734Y-4075074D01*
X-363778Y-3985717D01*
X-363778Y-3973576D01*
X-358038Y-3970020D01*
X-358038Y-3950614D01*
X-352907Y-3947464D01*
X-349707Y-3925925D01*
X-343712Y-3894328D01*
X-337667Y-3859936D01*
X-332435Y-3822649D01*
X-325323Y-3759504D01*
X-325729Y-3639007D01*
X-332130Y-3575913D01*
X-337718Y-3538626D01*
X-343408Y-3507028D01*
X-349758Y-3478377D01*
X-352907Y-3459683D01*
X-358038Y-3456533D01*
X-358038Y-3442411D01*
X-363118Y-3432454D01*
X-375513Y-3392322D01*
X-380441Y-3380841D01*
X-399338Y-3332073D01*
X-438810Y-3254603D01*
X-446989Y-3245561D01*
X-446989Y-3241903D01*
X-464413Y-3217316D01*
X-478231Y-3196386D01*
X-503123Y-3165652D01*
X-511505Y-3153664D01*
X-543001Y-3116884D01*
X-586130Y-3073806D01*
X-620623Y-3044393D01*
X-652068Y-3018891D01*
X-714044Y-2977438D01*
X-743915Y-2959506D01*
X-804164Y-2928975D01*
X23520Y-2928975D01*
X23520Y-2894533D01*
X-798118Y-2894533D01*
X-792683Y-2889504D01*
X-741934Y-2862986D01*
X-725779Y-2851505D01*
X-722172Y-2851505D01*
X-669290Y-2816047D01*
X-632561Y-2787599D01*
X-620928Y-2778353D01*
X-591870Y-2753055D01*
X-518109Y-2677972D01*
X-485698Y-2635961D01*
X-441248Y-2571800D01*
X-420065Y-2534513D01*
X-386740Y-2469032D01*
X-386740Y-2464155D01*
X-375615Y-2439822D01*
X-357378Y-2382469D01*
X-352298Y-2372512D01*
X-352298Y-2355545D01*
X-347167Y-2352395D01*
X-343966Y-2330805D01*
X-337921Y-2299258D01*
X-331927Y-2261971D01*
X-325729Y-2207463D01*
X-325424Y-2072639D01*
X-332130Y-2012391D01*
X-337667Y-1969363D01*
X-343306Y-1937816D01*
X-346964Y-1909114D01*
X-351891Y-1897634D01*
X-354888Y-1880412D01*
X-361238Y-1851710D01*
X-364388Y-1833016D01*
X-369519Y-1829866D01*
X-369519Y-1815795D01*
X-374599Y-1805838D01*
X-398526Y-1731264D01*
X-409651Y-1706930D01*
X-409651Y-1702003D01*
X-417830Y-1685340D01*
X-443839Y-1626362D01*
X-463296Y-1590649D01*
X-479247Y-1561998D01*
X-487121Y-1552905D01*
X-487121Y-1548739D01*
X-511200Y-1513230D01*
X-540207Y-1476095D01*
X-579069Y-1435760D01*
X-590397Y-1412443D01*
X-590397Y-1403858D01*
X-601878Y-1380083D01*
X-601878Y-1375156D01*
X-616762Y-1343964D01*
X-645972Y-1283716D01*
X-662127Y-1259738D01*
X-662127Y-1256233D01*
X-712317Y-1182573D01*
X-729538Y-1160881D01*
X-778916Y-1105814D01*
X-835710Y-1053490D01*
X-852932Y-1039266D01*
X-914653Y-992530D01*
X-919429Y-992530D01*
X-929843Y-981049D01*
X-934516Y-981049D01*
X-973429Y-956005D01*
X-1010716Y-935228D01*
X-1065225Y-908710D01*
X-1076706Y-904138D01*
X-1103884Y-892098D01*
X-1111402Y-892098D01*
X-1116838Y-887374D01*
X-1159865Y-874217D01*
X-1171346Y-869594D01*
X-1202944Y-862990D01*
X-1214374Y-858062D01*
X-1263142Y-849477D01*
X-1277518Y-845667D01*
X-1294739Y-823163D01*
X-1317701Y-793648D01*
X-1354988Y-753719D01*
X-1403756Y-712825D01*
X-1426616Y-695604D01*
X-1436014Y-689864D01*
X-1472590Y-665683D01*
X-1478330Y-661162D01*
X-1538579Y-630377D01*
X-1550060Y-625856D01*
X-1575866Y-614578D01*
X-1598828Y-606907D01*
X-1604264Y-602335D01*
X-1617116Y-602335D01*
X-1620672Y-596595D01*
X-1634337Y-596595D01*
X-1637487Y-591515D01*
X-1656181Y-588314D01*
X-1710689Y-576427D01*
X-1748028Y-570890D01*
X-1811121Y-565048D01*
X-1902155Y-565810D01*
X-1989226Y-522020D01*
X-1993138Y-522020D01*
X-2023414Y-508304D01*
X-2054961Y-496620D01*
X-2077923Y-489762D01*
X-2087880Y-484733D01*
X-2102002Y-484733D01*
X-2105152Y-479602D01*
X-2126691Y-476351D01*
X-2161133Y-470408D01*
X-2209901Y-463499D01*
X-2350465Y-463600D01*
X-2402128Y-470560D01*
X-2439416Y-475996D01*
X-2466644Y-479551D01*
X-2466644Y-473252D01*
X-2475331Y-473252D01*
X-2502509Y-461314D01*
X-2512517Y-456031D01*
X-2521254Y-456031D01*
X-2544064Y-444550D01*
X-2555697Y-444550D01*
X-2565654Y-439521D01*
X-2586126Y-433070D01*
X-2601163Y-433070D01*
X-2604262Y-428091D01*
X-2631643Y-424129D01*
X-2663190Y-418541D01*
G37*
G36*
X-2030984Y-2515158D02*
G01*
X-2047798Y-2531262D01*
X-2047798Y-3267100D01*
X-2032863Y-3278835D01*
X-2013864Y-3282391D01*
X-1983282Y-3273450D01*
X-1956307Y-3256330D01*
X-1932178Y-3231642D01*
X-1917293Y-3200095D01*
X-1917293Y-2597505D01*
X-1936089Y-2559253D01*
X-1966061Y-2532227D01*
X-1997608Y-2517597D01*
G37*
G36*
X-1846732Y-2561082D02*
G01*
X-1861210Y-2564739D01*
X-1870202Y-2582062D01*
X-1872030Y-3073857D01*
X-1868525Y-3222091D01*
X-1851710Y-3236569D01*
X-1819757Y-3234232D01*
X-1786737Y-3219043D01*
X-1755190Y-3189224D01*
X-1739392Y-3157067D01*
X-1739392Y-2640685D01*
X-1754835Y-2607767D01*
X-1782521Y-2580081D01*
X-1816150Y-2563622D01*
G37*
G36*
X1546707Y-1082141D02*
G01*
X1538478Y-1084732D01*
X1532331Y-1088999D01*
X1530502Y-1088999D01*
X1525473Y-1094181D01*
X1525473Y-1095603D01*
X1519885Y-1100480D01*
X1516989Y-1108303D01*
X1516989Y-1174902D01*
X1550162Y-1174902D01*
X1550619Y-1124813D01*
X1555343Y-1116228D01*
X1559915Y-1115060D01*
X1591462Y-1114907D01*
X1593392Y-1118260D01*
X1593392Y-1187704D01*
X1591056Y-1193596D01*
X1558645Y-1193038D01*
X1553413Y-1189431D01*
X1551736Y-1184402D01*
X1550162Y-1174902D01*
X1516989Y-1174902D01*
X1516989Y-1201674D01*
X1520647Y-1208989D01*
X1522577Y-1208989D01*
X1525320Y-1213815D01*
X1531569Y-1219504D01*
X1538427Y-1223518D01*
X1549400Y-1225397D01*
X1664411Y-1225397D01*
X1676501Y-1223365D01*
X1689506Y-1213307D01*
X1690878Y-1209395D01*
X1694992Y-1204214D01*
X1697685Y-1196492D01*
X1697685Y-1110183D01*
X1688490Y-1093774D01*
X1685391Y-1090574D01*
X1677873Y-1087069D01*
X1676603Y-1085291D01*
X1667459Y-1082141D01*
X1647189Y-1082141D01*
X1640636Y-1086002D01*
X1639570Y-1088491D01*
X1638452Y-1101699D01*
X1640738Y-1110386D01*
X1649780Y-1114907D01*
X1655572Y-1114907D01*
X1659991Y-1116431D01*
X1664309Y-1126083D01*
X1663700Y-1187043D01*
X1657705Y-1192885D01*
X1631289Y-1193647D01*
X1623110Y-1188974D01*
X1622196Y-1086561D01*
X1617624Y-1082141D01*
G37*
G36*
X1692351Y-1264208D02*
G01*
X1554226Y-1264767D01*
X1542084Y-1266850D01*
X1535074Y-1268577D01*
X1525879Y-1276096D01*
X1523085Y-1281074D01*
X1519174Y-1283970D01*
X1516837Y-1290523D01*
X1517446Y-1350975D01*
X1528521Y-1369923D01*
X1533448Y-1373784D01*
X1531213Y-1375816D01*
X1521612Y-1376629D01*
X1516989Y-1382217D01*
X1517091Y-1401876D01*
X1518970Y-1406144D01*
X1521968Y-1409192D01*
X1692554Y-1409192D01*
X1696974Y-1404874D01*
X1698294Y-1392682D01*
X1696974Y-1381150D01*
X1693367Y-1376476D01*
X1571853Y-1375968D01*
X1566113Y-1372108D01*
X1564894Y-1372108D01*
X1554022Y-1362202D01*
X1550517Y-1351838D01*
X1550466Y-1305864D01*
X1555496Y-1299413D01*
X1565554Y-1296212D01*
X1692554Y-1296162D01*
X1697177Y-1291640D01*
X1698345Y-1285697D01*
X1697583Y-1270457D01*
G37*
G36*
X1453642Y-1445463D02*
G01*
X1449984Y-1447241D01*
X1447139Y-1452270D01*
X1447393Y-1472641D01*
X1448206Y-1476502D01*
X1453896Y-1480870D01*
X1472539Y-1480870D01*
X1478280Y-1475740D01*
X1478280Y-1451406D01*
X1476095Y-1447596D01*
X1473098Y-1445514D01*
G37*
G36*
X1520850Y-1447190D02*
G01*
X1516989Y-1452219D01*
X1517040Y-1471777D01*
X1519529Y-1476959D01*
X1522374Y-1479143D01*
X1693672Y-1478686D01*
X1697634Y-1473860D01*
X1697532Y-1451813D01*
X1693925Y-1447241D01*
G37*
G36*
X1520698Y-1517091D02*
G01*
X1516989Y-1522730D01*
X1516989Y-1542034D01*
X1519224Y-1546860D01*
X1521968Y-1549908D01*
X1529334Y-1549908D01*
X1532991Y-1551686D01*
X1532991Y-1554175D01*
X1529384Y-1555953D01*
X1523187Y-1565859D01*
X1520748Y-1567586D01*
X1516989Y-1577086D01*
X1550060Y-1577086D01*
X1551940Y-1569313D01*
X1555851Y-1560271D01*
X1557324Y-1560271D01*
X1566824Y-1552448D01*
X1574749Y-1549908D01*
X1639316Y-1549908D01*
X1648256Y-1552346D01*
X1653743Y-1557578D01*
X1658366Y-1560372D01*
X1663700Y-1570177D01*
X1663700Y-1621231D01*
X1658518Y-1627428D01*
X1646732Y-1628546D01*
X1558645Y-1627987D01*
X1553413Y-1624431D01*
X1551736Y-1619402D01*
X1550263Y-1609902D01*
X1550060Y-1577086D01*
X1516989Y-1577086D01*
X1516989Y-1636623D01*
X1520494Y-1643532D01*
X1524508Y-1645716D01*
X1524508Y-1647850D01*
X1529080Y-1652168D01*
X1533499Y-1655673D01*
X1538376Y-1658518D01*
X1549400Y-1660398D01*
X1664411Y-1660398D01*
X1676501Y-1658366D01*
X1689506Y-1648307D01*
X1690878Y-1644396D01*
X1694992Y-1639214D01*
X1697685Y-1631442D01*
X1697634Y-1574495D01*
X1693316Y-1566316D01*
X1691995Y-1566265D01*
X1688388Y-1558086D01*
X1685645Y-1554226D01*
X1683054Y-1554226D01*
X1683054Y-1551787D01*
X1688998Y-1549908D01*
X1726946Y-1549958D01*
X1730857Y-1552041D01*
X1735429Y-1555496D01*
X1738122Y-1560677D01*
X1738884Y-1611630D01*
X1736953Y-1624533D01*
X1729739Y-1630172D01*
X1720342Y-1634439D01*
X1715871Y-1637639D01*
X1714906Y-1653032D01*
X1719072Y-1657807D01*
X1724964Y-1660601D01*
X1742236Y-1659686D01*
X1752396Y-1655673D01*
X1757883Y-1650746D01*
X1762252Y-1648104D01*
X1765198Y-1642770D01*
X1767128Y-1631238D01*
X1766570Y-1538224D01*
X1763471Y-1532026D01*
X1753870Y-1523136D01*
X1751228Y-1523136D01*
X1748637Y-1520291D01*
X1741068Y-1517142D01*
G37*
G36*
X1690116Y-1697380D02*
G01*
X1547622Y-1697989D01*
X1533499Y-1704035D01*
X1529689Y-1705965D01*
X1524050Y-1713077D01*
X1519783Y-1717446D01*
X1516989Y-1723593D01*
X1517142Y-1810969D01*
X1519885Y-1816811D01*
X1530400Y-1828850D01*
X1536293Y-1831339D01*
X1542186Y-1834743D01*
X1556105Y-1836369D01*
X1565554Y-1836369D01*
X1571193Y-1832203D01*
X1571904Y-1808937D01*
X1566113Y-1803755D01*
X1555496Y-1802587D01*
X1553667Y-1798066D01*
X1550466Y-1791970D01*
X1550466Y-1738833D01*
X1552397Y-1737614D01*
X1555800Y-1732737D01*
X1562201Y-1730298D01*
X1583842Y-1730298D01*
X1587246Y-1735886D01*
X1587272Y-1737969D01*
X1620774Y-1737969D01*
X1622856Y-1730298D01*
X1637944Y-1730298D01*
X1651507Y-1736394D01*
X1660245Y-1744522D01*
X1664157Y-1754835D01*
X1664157Y-1800860D01*
X1658061Y-1809597D01*
X1650339Y-1810715D01*
X1628749Y-1810105D01*
X1623161Y-1806092D01*
X1620926Y-1801469D01*
X1620774Y-1737969D01*
X1587272Y-1737969D01*
X1588211Y-1814423D01*
X1593392Y-1822907D01*
X1593392Y-1825752D01*
X1605534Y-1837385D01*
X1612747Y-1839214D01*
X1615897Y-1841754D01*
X1636318Y-1843532D01*
X1665630Y-1842668D01*
X1680667Y-1836928D01*
X1683308Y-1835150D01*
X1689506Y-1829358D01*
X1691944Y-1823923D01*
X1694129Y-1822196D01*
X1697685Y-1813560D01*
X1697634Y-1755749D01*
X1693316Y-1747164D01*
X1691792Y-1746250D01*
X1686814Y-1737258D01*
X1686814Y-1734616D01*
X1683054Y-1732432D01*
X1683054Y-1730298D01*
X1692554Y-1730298D01*
X1697075Y-1725828D01*
X1698396Y-1716278D01*
X1697431Y-1704797D01*
X1693976Y-1698294D01*
G37*
G36*
X1547520Y-1874418D02*
G01*
X1538224Y-1877212D01*
X1536293Y-1879244D01*
X1529689Y-1882089D01*
X1525473Y-1886508D01*
X1525473Y-1887880D01*
X1519885Y-1892807D01*
X1516989Y-1900631D01*
X1516989Y-1938375D01*
X1520952Y-1946910D01*
X1522526Y-1946910D01*
X1525828Y-1953361D01*
X1527962Y-1955088D01*
X1536700Y-1964689D01*
X1524965Y-1976882D01*
X1517446Y-1987905D01*
X1516837Y-2025599D01*
X1519936Y-2032762D01*
X1523288Y-2036216D01*
X1529334Y-2046427D01*
X1534160Y-2049881D01*
X1529689Y-2052167D01*
X1521764Y-2052218D01*
X1516989Y-2057958D01*
X1517091Y-2077669D01*
X1518970Y-2081936D01*
X1521968Y-2084984D01*
X1692554Y-2084984D01*
X1696974Y-2080666D01*
X1698294Y-2068423D01*
X1696974Y-2056942D01*
X1693316Y-2052218D01*
X1577848Y-2052167D01*
X1570939Y-2050694D01*
X1566621Y-2047036D01*
X1564487Y-2047036D01*
X1553972Y-2037943D01*
X1550619Y-2027631D01*
X1550568Y-2004110D01*
X1555902Y-1998268D01*
X1565351Y-1994357D01*
X1693418Y-1994357D01*
X1698345Y-1987499D01*
X1697634Y-1969617D01*
X1692452Y-1963369D01*
X1575968Y-1962861D01*
X1562252Y-1957882D01*
X1562252Y-1956460D01*
X1554022Y-1949094D01*
X1550619Y-1939594D01*
X1550466Y-1918004D01*
X1553870Y-1911096D01*
X1555343Y-1908556D01*
X1559915Y-1907387D01*
X1692148Y-1907184D01*
X1697634Y-1901952D01*
X1697583Y-1878787D01*
X1693113Y-1874418D01*
G37*
G36*
X1454200Y-2122982D02*
G01*
X1448866Y-2126894D01*
X1447241Y-2134616D01*
X1447190Y-2151024D01*
X1449984Y-2155748D01*
X1453642Y-2157526D01*
X1693418Y-2157526D01*
X1698447Y-2150567D01*
X1697380Y-2128977D01*
X1692960Y-2122982D01*
G37*
G36*
X1580286Y-2276602D02*
G01*
X1575308Y-2278329D01*
X1572666Y-2280767D01*
X1570736Y-2285339D01*
X1570939Y-2393543D01*
X1572768Y-2399792D01*
X1581861Y-2404364D01*
X1598726Y-2404364D01*
X1604264Y-2399030D01*
X1604822Y-2285695D01*
X1603756Y-2280361D01*
X1599946Y-2276602D01*
G37*
G36*
X1521968Y-2504440D02*
G01*
X1519123Y-2507488D01*
X1516989Y-2513330D01*
X1516989Y-2553563D01*
X1514754Y-2557983D01*
X1461770Y-2557983D01*
X1453286Y-2560269D01*
X1450644Y-2565146D01*
X1450136Y-2579979D01*
X1451406Y-2586685D01*
X1456690Y-2590342D01*
X1664665Y-2590850D01*
X1675942Y-2587955D01*
X1682546Y-2582976D01*
X1683969Y-2582976D01*
X1687880Y-2579979D01*
X1691792Y-2571800D01*
X1693214Y-2571800D01*
X1697685Y-2561844D01*
X1697685Y-2512669D01*
X1696313Y-2508300D01*
X1692402Y-2504440D01*
X1675028Y-2504440D01*
X1668576Y-2507488D01*
X1664665Y-2512364D01*
X1663700Y-2548890D01*
X1659686Y-2556865D01*
X1652371Y-2557932D01*
X1555191Y-2557932D01*
X1550619Y-2554427D01*
X1549501Y-2511806D01*
X1546098Y-2507183D01*
X1538630Y-2504440D01*
G37*
G36*
X1692351Y-2631236D02*
G01*
X1549501Y-2631897D01*
X1535582Y-2635554D01*
X1528775Y-2640584D01*
X1519834Y-2650744D01*
X1516888Y-2656687D01*
X1517446Y-2718054D01*
X1528419Y-2737053D01*
X1533448Y-2740914D01*
X1531213Y-2742895D01*
X1521612Y-2743758D01*
X1516989Y-2749296D01*
X1517091Y-2769006D01*
X1518970Y-2773273D01*
X1521968Y-2776321D01*
X1692554Y-2776321D01*
X1696974Y-2772003D01*
X1698294Y-2759760D01*
X1696974Y-2748280D01*
X1693367Y-2743606D01*
X1571853Y-2743098D01*
X1566113Y-2739186D01*
X1564894Y-2739186D01*
X1554022Y-2729280D01*
X1550466Y-2718917D01*
X1550466Y-2672334D01*
X1556105Y-2665831D01*
X1558950Y-2665831D01*
X1564335Y-2663240D01*
X1692554Y-2663240D01*
X1697126Y-2658770D01*
X1698396Y-2651048D01*
X1697532Y-2637485D01*
G37*
G36*
X1546707Y-2814320D02*
G01*
X1538478Y-2816961D01*
X1532331Y-2821178D01*
X1530502Y-2821178D01*
X1525473Y-2826359D01*
X1525473Y-2827782D01*
X1519885Y-2832658D01*
X1516989Y-2840482D01*
X1516989Y-2907080D01*
X1550162Y-2907080D01*
X1550619Y-2857042D01*
X1555343Y-2848406D01*
X1559915Y-2847289D01*
X1591462Y-2847086D01*
X1593392Y-2850438D01*
X1593392Y-2919882D01*
X1591056Y-2925775D01*
X1558645Y-2925216D01*
X1553413Y-2921609D01*
X1551736Y-2916580D01*
X1550162Y-2907080D01*
X1516989Y-2907080D01*
X1516989Y-2933852D01*
X1520494Y-2940761D01*
X1524508Y-2942894D01*
X1524508Y-2945079D01*
X1529080Y-2949397D01*
X1533499Y-2952902D01*
X1538376Y-2955696D01*
X1549400Y-2957576D01*
X1664411Y-2957576D01*
X1676501Y-2955544D01*
X1689506Y-2945485D01*
X1690878Y-2941624D01*
X1694992Y-2936443D01*
X1697685Y-2928670D01*
X1697685Y-2842361D01*
X1688490Y-2825953D01*
X1685391Y-2822752D01*
X1677873Y-2819247D01*
X1676603Y-2817469D01*
X1667459Y-2814320D01*
X1647189Y-2814320D01*
X1640636Y-2818180D01*
X1639570Y-2820670D01*
X1638452Y-2833878D01*
X1640738Y-2842564D01*
X1649780Y-2847086D01*
X1656181Y-2847136D01*
X1660601Y-2849270D01*
X1663649Y-2856179D01*
X1664309Y-2908808D01*
X1663090Y-2919374D01*
X1657908Y-2925064D01*
X1631289Y-2925876D01*
X1623110Y-2921203D01*
X1622196Y-2818739D01*
X1617624Y-2814320D01*
G37*
G36*
X1522628Y-2977184D02*
G01*
X1519478Y-2979572D01*
X1516989Y-2985109D01*
X1516989Y-3006191D01*
X1521764Y-3011932D01*
X1525016Y-3011932D01*
X1528978Y-3014472D01*
X1539138Y-3017824D01*
X1545742Y-3018993D01*
X1557274Y-3024022D01*
X1573123Y-3027680D01*
X1578965Y-3030931D01*
X1590090Y-3034182D01*
X1596542Y-3035452D01*
X1605026Y-3039567D01*
X1608378Y-3039567D01*
X1609394Y-3041040D01*
X1617472Y-3042259D01*
X1627530Y-3046577D01*
X1638960Y-3049930D01*
X1642110Y-3049930D01*
X1645513Y-3052216D01*
X1641703Y-3058972D01*
X1638249Y-3060852D01*
X1627835Y-3062986D01*
X1617929Y-3066542D01*
X1617929Y-3067862D01*
X1603298Y-3070758D01*
X1590090Y-3076651D01*
X1579727Y-3078581D01*
X1566519Y-3084220D01*
X1556105Y-3086303D01*
X1552346Y-3087624D01*
X1540103Y-3093059D01*
X1536293Y-3093110D01*
X1523390Y-3097276D01*
X1519783Y-3100273D01*
X1516989Y-3105404D01*
X1517192Y-3124555D01*
X1519326Y-3129940D01*
X1521917Y-3132785D01*
X1523288Y-3132785D01*
X1529892Y-3128721D01*
X1540103Y-3126536D01*
X1556105Y-3119983D01*
X1569313Y-3116224D01*
X1574342Y-3112973D01*
X1583486Y-3111042D01*
X1591970Y-3108299D01*
X1596847Y-3105251D01*
X1602384Y-3104134D01*
X1612950Y-3100933D01*
X1619351Y-3097479D01*
X1628800Y-3095447D01*
X1644345Y-3088741D01*
X1646224Y-3088741D01*
X1658061Y-3085084D01*
X1665579Y-3081121D01*
X1673148Y-3079902D01*
X1675028Y-3078581D01*
X1681022Y-3077413D01*
X1683207Y-3075025D01*
X1693062Y-3072434D01*
X1697583Y-3067964D01*
X1697634Y-3043428D01*
X1694078Y-3038602D01*
X1678432Y-3031794D01*
X1669338Y-3029966D01*
X1658874Y-3025038D01*
X1647494Y-3022346D01*
X1634439Y-3016453D01*
X1624990Y-3014421D01*
X1612290Y-3008579D01*
X1605178Y-3007410D01*
X1590090Y-3000908D01*
X1579727Y-2998774D01*
X1574698Y-2995523D01*
X1573377Y-2995523D01*
X1567434Y-2993136D01*
X1558036Y-2991002D01*
X1549501Y-2987090D01*
X1544828Y-2985262D01*
X1536649Y-2983382D01*
G37*
G36*
X1545742Y-3150463D02*
G01*
X1529588Y-3157575D01*
X1523644Y-3165144D01*
X1520952Y-3167735D01*
X1516989Y-3175406D01*
X1516989Y-3234385D01*
X1519885Y-3241903D01*
X1523238Y-3245408D01*
X1528267Y-3254654D01*
X1528267Y-3256838D01*
X1532077Y-3261207D01*
X1532077Y-3262172D01*
X1520545Y-3263341D01*
X1516989Y-3268726D01*
X1517040Y-3286810D01*
X1521206Y-3294583D01*
X1692351Y-3295040D01*
X1696262Y-3290468D01*
X1698345Y-3283356D01*
X1697380Y-3267506D01*
X1692960Y-3263188D01*
X1575968Y-3262680D01*
X1562709Y-3256178D01*
X1553057Y-3246678D01*
X1549806Y-3228136D01*
X1550619Y-3191916D01*
X1555496Y-3185363D01*
X1556156Y-3183585D01*
X1563674Y-3182010D01*
X1693113Y-3181959D01*
X1697482Y-3177336D01*
X1697685Y-3156508D01*
X1693773Y-3150463D01*
G37*
G36*
X1455166Y-3332073D02*
G01*
X1449120Y-3334969D01*
X1447139Y-3340150D01*
X1447342Y-3356762D01*
X1448866Y-3362756D01*
X1453845Y-3366668D01*
X1692554Y-3366668D01*
X1697024Y-3362248D01*
X1698345Y-3347669D01*
X1697532Y-3337306D01*
X1693672Y-3332581D01*
G37*
G36*
X1582166Y-3484930D02*
G01*
X1576984Y-3487064D01*
X1572666Y-3490976D01*
X1570736Y-3494278D01*
X1570736Y-3604514D01*
X1575816Y-3611676D01*
X1582572Y-3614420D01*
X1599488Y-3613912D01*
X1603654Y-3608222D01*
X1604822Y-3599281D01*
X1604264Y-3491229D01*
X1598980Y-3484930D01*
G37*
G36*
X1546707Y-3730904D02*
G01*
X1538478Y-3733546D01*
X1532331Y-3737762D01*
X1530502Y-3737762D01*
X1525473Y-3742944D01*
X1525473Y-3744366D01*
X1519885Y-3749243D01*
X1516989Y-3757066D01*
X1516989Y-3823665D01*
X1550162Y-3823665D01*
X1550619Y-3773627D01*
X1555343Y-3764991D01*
X1559915Y-3763822D01*
X1591462Y-3763670D01*
X1593392Y-3767023D01*
X1593392Y-3836466D01*
X1591056Y-3842359D01*
X1558645Y-3841800D01*
X1553413Y-3838194D01*
X1551736Y-3833164D01*
X1550162Y-3823665D01*
X1516989Y-3823665D01*
X1516989Y-3850436D01*
X1520494Y-3857345D01*
X1524508Y-3859479D01*
X1524508Y-3861663D01*
X1529080Y-3865930D01*
X1533499Y-3869436D01*
X1538376Y-3872280D01*
X1549400Y-3874160D01*
X1664411Y-3874160D01*
X1676501Y-3872128D01*
X1689506Y-3862070D01*
X1690878Y-3858209D01*
X1694992Y-3853027D01*
X1697685Y-3845255D01*
X1697685Y-3758946D01*
X1688490Y-3742537D01*
X1685391Y-3739337D01*
X1677873Y-3735832D01*
X1676603Y-3734054D01*
X1667459Y-3730904D01*
X1647189Y-3730904D01*
X1640636Y-3734765D01*
X1639570Y-3737254D01*
X1638452Y-3750462D01*
X1640738Y-3759149D01*
X1649780Y-3763670D01*
X1655216Y-3763721D01*
X1659585Y-3764787D01*
X1664157Y-3774236D01*
X1664157Y-3828186D01*
X1662988Y-3836060D01*
X1657908Y-3841648D01*
X1631289Y-3842461D01*
X1624076Y-3838448D01*
X1623110Y-3837736D01*
X1622196Y-3735324D01*
X1617624Y-3730904D01*
G37*
G36*
X1538224Y-3895648D02*
G01*
X1520291Y-3896156D01*
X1517040Y-3903929D01*
X1516989Y-3932224D01*
X1519224Y-3939336D01*
X1525422Y-3947972D01*
X1528775Y-3952240D01*
X1532839Y-3960876D01*
X1530654Y-3962146D01*
X1520698Y-3962196D01*
X1516989Y-3967784D01*
X1517040Y-3985920D01*
X1521206Y-3993692D01*
X1692351Y-3994150D01*
X1696262Y-3989578D01*
X1698345Y-3982465D01*
X1697380Y-3966565D01*
X1692960Y-3962247D01*
X1575968Y-3961739D01*
X1562709Y-3955237D01*
X1553057Y-3945788D01*
X1550162Y-3929837D01*
X1550009Y-3903776D01*
X1544370Y-3896664D01*
G37*
G36*
X1606143Y-4032097D02*
G01*
X1553311Y-4032148D01*
X1539646Y-4033774D01*
X1534414Y-4036771D01*
X1531569Y-4039057D01*
X1526387Y-4042613D01*
X1523339Y-4048048D01*
X1520545Y-4049522D01*
X1516989Y-4056684D01*
X1517011Y-4077411D01*
X1550111Y-4077411D01*
X1553464Y-4067911D01*
X1558544Y-4065625D01*
X1570482Y-4063949D01*
X1654251Y-4064457D01*
X1659737Y-4067048D01*
X1663700Y-4071924D01*
X1663700Y-4134358D01*
X1660347Y-4140809D01*
X1656181Y-4142994D01*
X1558950Y-4142994D01*
X1553972Y-4140962D01*
X1552600Y-4135221D01*
X1551076Y-4133443D01*
X1550314Y-4124858D01*
X1550111Y-4077411D01*
X1517011Y-4077411D01*
X1517091Y-4150766D01*
X1519326Y-4156405D01*
X1524050Y-4161129D01*
X1528775Y-4167581D01*
X1529892Y-4167581D01*
X1538224Y-4173321D01*
X1547622Y-4175810D01*
X1665579Y-4175810D01*
X1676146Y-4173423D01*
X1681988Y-4168749D01*
X1688693Y-4164584D01*
X1690776Y-4158894D01*
X1694027Y-4155948D01*
X1697685Y-4147312D01*
X1697685Y-4061002D01*
X1694230Y-4051960D01*
X1691944Y-4050639D01*
X1688642Y-4043730D01*
X1683816Y-4040276D01*
X1679651Y-4036822D01*
X1674774Y-4033875D01*
X1659026Y-4032097D01*
G37*
G36*
X1453997Y-4213352D02*
G01*
X1449273Y-4216755D01*
X1447139Y-4224477D01*
X1447393Y-4237075D01*
X1448206Y-4241393D01*
X1453997Y-4246118D01*
X1692402Y-4246118D01*
X1697024Y-4241596D01*
X1698294Y-4228744D01*
X1697024Y-4218736D01*
X1693468Y-4213352D01*
G37*
G36*
X1666341Y-4284065D02*
G01*
X1545742Y-4284522D01*
X1529588Y-4291634D01*
X1523644Y-4299204D01*
X1520952Y-4301794D01*
X1516989Y-4309465D01*
X1516989Y-4365650D01*
X1550162Y-4365650D01*
X1550670Y-4326839D01*
X1555648Y-4318914D01*
X1560677Y-4316476D01*
X1656537Y-4316476D01*
X1659280Y-4319066D01*
X1663700Y-4325975D01*
X1664309Y-4369968D01*
X1662125Y-4380331D01*
X1659229Y-4385513D01*
X1655927Y-4388408D01*
X1638249Y-4396740D01*
X1575968Y-4396740D01*
X1562709Y-4390237D01*
X1553057Y-4380788D01*
X1550162Y-4365650D01*
X1516989Y-4365650D01*
X1516989Y-4368647D01*
X1519936Y-4376877D01*
X1523085Y-4379468D01*
X1532788Y-4396130D01*
X1525930Y-4397146D01*
X1520698Y-4397197D01*
X1516989Y-4402785D01*
X1517040Y-4420920D01*
X1521206Y-4428693D01*
X1760321Y-4429099D01*
X1765046Y-4425086D01*
X1767027Y-4420362D01*
X1767027Y-4403090D01*
X1764842Y-4399330D01*
X1761845Y-4397248D01*
X1683512Y-4397146D01*
X1681378Y-4395876D01*
X1687626Y-4385513D01*
X1694942Y-4372559D01*
X1697685Y-4363923D01*
X1697634Y-4312158D01*
X1693367Y-4304385D01*
X1688134Y-4296257D01*
X1684121Y-4292295D01*
X1681276Y-4290161D01*
G37*
G36*
X1692859Y-4451350D02*
G01*
X1688795Y-4452518D01*
X1681632Y-4458462D01*
X1675536Y-4461205D01*
X1667205Y-4467961D01*
X1665173Y-4467961D01*
X1658264Y-4474057D01*
X1650695Y-4477613D01*
X1646021Y-4481880D01*
X1638655Y-4485386D01*
X1633575Y-4490313D01*
X1627835Y-4492498D01*
X1621739Y-4497527D01*
X1611122Y-4503369D01*
X1608378Y-4505909D01*
X1605889Y-4505909D01*
X1603756Y-4503572D01*
X1591970Y-4496917D01*
X1587246Y-4492802D01*
X1579270Y-4489450D01*
X1579270Y-4487773D01*
X1568704Y-4481576D01*
X1562608Y-4476800D01*
X1554734Y-4473092D01*
X1554734Y-4471466D01*
X1545742Y-4466742D01*
X1541881Y-4463034D01*
X1532534Y-4458055D01*
X1527810Y-4454042D01*
X1522730Y-4451553D01*
X1520291Y-4452416D01*
X1516989Y-4457750D01*
X1516989Y-4481830D01*
X1519682Y-4486503D01*
X1524965Y-4490974D01*
X1534414Y-4495749D01*
X1539189Y-4499457D01*
X1548536Y-4503775D01*
X1551432Y-4506620D01*
X1560830Y-4511294D01*
X1565910Y-4515205D01*
X1574444Y-4518964D01*
X1583944Y-4527804D01*
X1583944Y-4528312D01*
X1578610Y-4530852D01*
X1570786Y-4536795D01*
X1562455Y-4540504D01*
X1558036Y-4544568D01*
X1551279Y-4547158D01*
X1544828Y-4552137D01*
X1538224Y-4554880D01*
X1529994Y-4561179D01*
X1527708Y-4561179D01*
X1521206Y-4565548D01*
X1516989Y-4571949D01*
X1516989Y-4596993D01*
X1521206Y-4602530D01*
X1524457Y-4602581D01*
X1530654Y-4596942D01*
X1539798Y-4592066D01*
X1542999Y-4589170D01*
X1550466Y-4585055D01*
X1555191Y-4580940D01*
X1563674Y-4575810D01*
X1571447Y-4570679D01*
X1572564Y-4569764D01*
X1574241Y-4569764D01*
X1577848Y-4566107D01*
X1593850Y-4556048D01*
X1602638Y-4549952D01*
X1607667Y-4548225D01*
X1611782Y-4550206D01*
X1618386Y-4554677D01*
X1619351Y-4555744D01*
X1623568Y-4556963D01*
X1631543Y-4563770D01*
X1633728Y-4563770D01*
X1640382Y-4569358D01*
X1650492Y-4575048D01*
X1656892Y-4580128D01*
X1659331Y-4580128D01*
X1661820Y-4583277D01*
X1671269Y-4589119D01*
X1680210Y-4595571D01*
X1683867Y-4596638D01*
X1691335Y-4603445D01*
X1693925Y-4602530D01*
X1697583Y-4597908D01*
X1697685Y-4571085D01*
X1693265Y-4564684D01*
X1689658Y-4563618D01*
X1689658Y-4562348D01*
X1683308Y-4560265D01*
X1677517Y-4555185D01*
X1669745Y-4551578D01*
X1663700Y-4546854D01*
X1657654Y-4544568D01*
X1652016Y-4539691D01*
X1644497Y-4536135D01*
X1637283Y-4530140D01*
X1632204Y-4528210D01*
X1639366Y-4521911D01*
X1641043Y-4519320D01*
X1650390Y-4515002D01*
X1657756Y-4509363D01*
X1659940Y-4509363D01*
X1669084Y-4502454D01*
X1670862Y-4502454D01*
X1676907Y-4498594D01*
X1683105Y-4493818D01*
X1685442Y-4493818D01*
X1694840Y-4486808D01*
X1698142Y-4481372D01*
X1698142Y-4466488D01*
X1696974Y-4456023D01*
G37*
G36*
X1693316Y-4608220D02*
G01*
X1673809Y-4608779D01*
X1665579Y-4610963D01*
X1662734Y-4615942D01*
X1661820Y-4744720D01*
X1659229Y-4747564D01*
X1597660Y-4747463D01*
X1590090Y-4745380D01*
X1588820Y-4737658D01*
X1588668Y-4650486D01*
X1586738Y-4644085D01*
X1582623Y-4641443D01*
X1564436Y-4641443D01*
X1558950Y-4643170D01*
X1554226Y-4649470D01*
X1553311Y-4744212D01*
X1548587Y-4747564D01*
X1488135Y-4747564D01*
X1484071Y-4744974D01*
X1482039Y-4736287D01*
X1482039Y-4617974D01*
X1478940Y-4611979D01*
X1471726Y-4608626D01*
X1454200Y-4608626D01*
X1448866Y-4612589D01*
X1447241Y-4620260D01*
X1447393Y-4773015D01*
X1448206Y-4777333D01*
X1453997Y-4782108D01*
X1692402Y-4782108D01*
X1697075Y-4777536D01*
X1698294Y-4763566D01*
X1697685Y-4614214D01*
G37*
D10*
X520077Y-775322D02*
G01*
X511175Y-2562225D01*
X203200Y-2870200D02*
G01*
X47625Y-2870200D01*
X514350Y-3228975D02*
G01*
X527050Y-5076825D01*
X2806700Y-469900D02*
G01*
X825500Y-469900D01*
X3124200Y-5080000D02*
G01*
X3124200Y-787400D01*
X838200Y-5372100D02*
G01*
X2781300Y-5372100D01*
X812800Y-5372100D02*
G01*
X838200Y-5372100D01*
X2832100Y-5372100D02*
G01*
X2781300Y-5372100D01*
X2806700Y-469900D02*
G01*
X2792884Y-469900D01*
X206375Y-2921000D02*
G01*
X50800Y-2921000D01*
X520077Y-775322D02*
G01*
X520077Y-796714D01*
X527050Y-5086350D02*
G01*
X527050Y-5076825D01*
X-2737957Y-2867581D02*
G01*
X-2737957Y-2787583D01*
X-2738003Y-2923626D02*
G01*
X-2738003Y-3003623D01*
X-2595989Y-2867581D02*
G01*
X-2595989Y-2787583D01*
X-2596037Y-2923626D02*
G01*
X-2596037Y-3003623D01*
X-2706974Y-2756608D02*
G01*
X-2626969Y-2756608D01*
X-2627022Y-3034601D02*
G01*
X-2707025Y-3034601D01*
X-3163100Y-2928299D02*
G01*
X-3203100Y-2888300D01*
X-3213100Y-2878300D01*
X-3223125Y-2888300D01*
X-3263125Y-2928299D01*
X-3163100Y-2928299D02*
G01*
X-3263125Y-2928299D01*
X-3314827Y-2952622D02*
G01*
X-3314827Y-3107562D01*
X-3111627Y-3107562D01*
X-3111627Y-2952622D01*
X-3317366Y-2873882D02*
G01*
X-3317366Y-2726562D01*
X-3276727Y-2685922D01*
X-3149727Y-2685922D01*
X-3111627Y-2724022D01*
X-3111627Y-2876422D01*
D11*
X-2567960Y-2938221D02*
G01*
X-2567960Y-3034108D01*
X-2435839Y-3034108D01*
X-2435839Y-2938221D01*
X-2567960Y-2852978D02*
G01*
X-2567960Y-2757091D01*
X-2435839Y-2757091D01*
X-2435839Y-2852978D01*
D10*
X-2384513Y-2995602D02*
G01*
X-2398702Y-2995602D01*
X-2198700Y-2928109D02*
G01*
X-2198700Y-2995602D01*
X-2212896Y-2995602D01*
X-2212896Y-2795602D02*
G01*
X-2198700Y-2795602D01*
X-2198700Y-2863108D01*
X-2398702Y-2795602D02*
G01*
X-2384513Y-2795602D01*
X-2398702Y-2863108D02*
G01*
X-2398702Y-2795602D01*
X-2398702Y-2995602D02*
G01*
X-2398702Y-2928109D01*
G75*
G01*
X3124200Y-5080000D02*
G02*
X2832100Y-5372100I-292100J0D01*
G75*
G01*
X3124200Y-787400D02*
G03*
X2806700Y-469900I-317500J0D01*
G75*
G01*
X825500Y-469900D02*
G03*
X520078Y-775322I0J-305422D01*
G75*
G01*
X511175Y-2562225D02*
G02*
X203200Y-2870200I-307975J0D01*
G75*
G01*
X812800Y-5372100D02*
G02*
X527050Y-5086350I0J285750D01*
G75*
G01*
X514350Y-3228975D02*
G03*
X206375Y-2921000I-307975J0D01*
G75*
G01*
X-2596037Y-3003619D02*
G02*
X-2627023Y-3034601I-30983J0D01*
G75*
G01*
X-2707020Y-3034601D02*
G02*
X-2738003Y-3003619I0J30982D01*
G75*
G01*
X-2737957Y-2787589D02*
G02*
X-2706975Y-2756609I30982J-3D01*
G75*
G01*
X-2626977Y-2756609D02*
G02*
X-2595989Y-2787589I5J-30983D01*
G75*
G01
X-2241575Y-2768600D02*
G03X-2241575Y-2768600I-6350J0D01*
G36*
X-812800Y-2844800D02*
G01*
X266700Y-2844800D01*
X266700Y-2946400D01*
X-812800Y-2946400D01*
G37*
G36*
X-2781300Y-2705100D02*
G01*
X-2730500Y-2705100D01*
X-2730500Y-3111500D01*
X-2781300Y-3111500D01*
G37*
G36*
X-2768600Y-2705100D02*
G01*
X-2209800Y-2705100D01*
X-2209800Y-2768600D01*
X-2768600Y-2768600D01*
G37*
G36*
X-2780131Y-3019805D02*
G01*
X-2159000Y-3019805D01*
X-2159000Y-3086100D01*
X-2780131Y-3086100D01*
G37*
G36*
X-2603500Y-2743200D02*
G01*
X-2565400Y-2743200D01*
X-2565400Y-3073400D01*
X-2603500Y-3073400D01*
G37*
G36*
X-2435834Y-2757093D02*
G01*
X-2387600Y-2757093D01*
X-2387600Y-3086100D01*
X-2435834Y-3086100D01*
G37*
G36*
X-2209800Y-2730500D02*
G01*
X-2171700Y-2730500D01*
X-2171700Y-3060700D01*
X-2209800Y-3060700D01*
G37*
G36*
X-2400300Y-2997200D02*
G01*
X-2198700Y-2997200D01*
X-2198700Y-3049600D01*
X-2400300Y-3049600D01*
G37*
G36*
X-2398268Y-2746019D02*
G01*
X-2196668Y-2746019D01*
X-2196668Y-2798419D01*
X-2398268Y-2798419D01*
G37*
M02*
