G04 Layer: BottomSolderMaskLayer*
G04 EasyEDA v6.5.50, 2025-06-01 17:24:59*
G04 69e65154b6b24189a8545f2fef81dcb9,5ab416c87bd24f2091f84acd62e1526b,10*
G04 Gerber Generator version 0.2*
G04 Scale: 100 percent, Rotated: No, Reflected: No *
G04 Dimensions in millimeters *
G04 leading zeros omitted , absolute positions ,4 integer and 5 decimal *
%FSLAX45Y45*%
%MOMM*%

%ADD10C,0.9096*%
%ADD11C,0.0157*%

%LPD*%
G36*
X-4899406Y-760882D02*
G01*
X-4931714Y-761492D01*
X-4942535Y-763066D01*
X-4950510Y-764641D01*
X-4959502Y-767943D01*
X-4973929Y-772363D01*
X-4976520Y-773734D01*
X-4980330Y-777087D01*
X-4990439Y-781100D01*
X-4996078Y-786536D01*
X-5002784Y-789686D01*
X-5008422Y-794715D01*
X-5015280Y-799185D01*
X-5018074Y-802894D01*
X-5023561Y-806551D01*
X-5026202Y-809802D01*
X-5026202Y-810869D01*
X-5032756Y-817829D01*
X-5038090Y-826363D01*
X-5039512Y-826922D01*
X-5042509Y-831443D01*
X-5044287Y-836168D01*
X-5050180Y-841908D01*
X-5054193Y-852678D01*
X-5056682Y-856081D01*
X-5058156Y-858977D01*
X-5062778Y-877519D01*
X-5065318Y-883869D01*
X-5067300Y-892708D01*
X-5068722Y-904240D01*
X-5068709Y-908913D01*
X-5058765Y-908913D01*
X-5057648Y-898398D01*
X-5054041Y-888187D01*
X-5051450Y-873861D01*
X-5049875Y-869137D01*
X-5045710Y-863955D01*
X-5044846Y-862330D01*
X-5042052Y-853948D01*
X-5037023Y-845921D01*
X-5033568Y-838200D01*
X-5030520Y-834593D01*
X-5025847Y-827176D01*
X-5004054Y-805332D01*
X-4998669Y-801370D01*
X-4993894Y-797204D01*
X-4986121Y-793597D01*
X-4980127Y-789330D01*
X-4969306Y-785317D01*
X-4963109Y-781151D01*
X-4960416Y-779983D01*
X-4949748Y-777697D01*
X-4944059Y-776071D01*
X-4938826Y-773074D01*
X-4931714Y-771296D01*
X-4891532Y-771245D01*
X-4883962Y-772566D01*
X-4876850Y-776224D01*
X-4859985Y-780338D01*
X-4856480Y-781964D01*
X-4852314Y-785418D01*
X-4844643Y-787857D01*
X-4839157Y-790346D01*
X-4836007Y-793038D01*
X-4825085Y-798626D01*
X-4821986Y-801928D01*
X-4814722Y-806602D01*
X-4811420Y-811733D01*
X-4806543Y-815289D01*
X-4802987Y-820013D01*
X-4799025Y-823061D01*
X-4796790Y-826719D01*
X-4789881Y-834085D01*
X-4785156Y-843787D01*
X-4782210Y-847140D01*
X-4781092Y-849426D01*
X-4777384Y-859739D01*
X-4773980Y-865479D01*
X-4772355Y-870712D01*
X-4769612Y-882548D01*
X-4764684Y-892200D01*
X-4763262Y-900023D01*
X-4763262Y-943000D01*
X-4764582Y-950823D01*
X-4769612Y-960882D01*
X-4773422Y-976731D01*
X-4777028Y-982776D01*
X-4781600Y-995324D01*
X-4784648Y-999032D01*
X-4790490Y-1010259D01*
X-4794961Y-1014018D01*
X-4798263Y-1018895D01*
X-4813249Y-1034186D01*
X-4815078Y-1036980D01*
X-4819243Y-1039114D01*
X-4825288Y-1044803D01*
X-4834839Y-1049680D01*
X-4840528Y-1053744D01*
X-4852365Y-1057960D01*
X-4855972Y-1060907D01*
X-4859375Y-1062685D01*
X-4874615Y-1066190D01*
X-4878476Y-1067816D01*
X-4881473Y-1070000D01*
X-4888433Y-1071676D01*
X-4927600Y-1071981D01*
X-4935677Y-1071067D01*
X-4941163Y-1069441D01*
X-4941874Y-1068324D01*
X-4946650Y-1066190D01*
X-4961788Y-1062685D01*
X-4964684Y-1061161D01*
X-4970018Y-1057503D01*
X-4975504Y-1055674D01*
X-4981651Y-1053084D01*
X-4986324Y-1049629D01*
X-4994148Y-1046022D01*
X-4998161Y-1042416D01*
X-5002784Y-1038860D01*
X-5025034Y-1017117D01*
X-5029962Y-1009497D01*
X-5033467Y-1005027D01*
X-5036972Y-997458D01*
X-5042204Y-989076D01*
X-5044186Y-982624D01*
X-5046726Y-977544D01*
X-5048961Y-975461D01*
X-5050993Y-971499D01*
X-5053990Y-955548D01*
X-5058257Y-942441D01*
X-5058765Y-908913D01*
X-5068709Y-908913D01*
X-5068620Y-940358D01*
X-5066944Y-952601D01*
X-5064760Y-961237D01*
X-5062931Y-964996D01*
X-5059629Y-978611D01*
X-5057648Y-985418D01*
X-5054092Y-991006D01*
X-5049774Y-1001928D01*
X-5045100Y-1005840D01*
X-5041747Y-1013256D01*
X-5036870Y-1018844D01*
X-5032248Y-1026261D01*
X-5027828Y-1030224D01*
X-5024221Y-1036218D01*
X-5020208Y-1038504D01*
X-5014061Y-1045108D01*
X-5007914Y-1048918D01*
X-5002276Y-1053896D01*
X-4994910Y-1057300D01*
X-4992217Y-1060907D01*
X-4988864Y-1062583D01*
X-4980838Y-1065885D01*
X-4976622Y-1069492D01*
X-4973675Y-1071016D01*
X-4961128Y-1074724D01*
X-4955387Y-1077315D01*
X-4947259Y-1079398D01*
X-4932730Y-1081532D01*
X-4918811Y-1082446D01*
X-4893564Y-1081989D01*
X-4879695Y-1080363D01*
X-4867808Y-1077925D01*
X-4858562Y-1074267D01*
X-4845913Y-1070406D01*
X-4839512Y-1065580D01*
X-4831283Y-1062024D01*
X-4826609Y-1057554D01*
X-4817872Y-1053185D01*
X-4812741Y-1048461D01*
X-4808067Y-1045718D01*
X-4801311Y-1038809D01*
X-4797450Y-1035761D01*
X-4795469Y-1031748D01*
X-4789728Y-1027480D01*
X-4786274Y-1022045D01*
X-4781804Y-1017219D01*
X-4777181Y-1007973D01*
X-4773422Y-1003553D01*
X-4770577Y-995883D01*
X-4768494Y-992733D01*
X-4766056Y-990396D01*
X-4763008Y-983843D01*
X-4763008Y-982167D01*
X-4760976Y-976121D01*
X-4757369Y-968451D01*
X-4755743Y-960780D01*
X-4753305Y-943000D01*
X-4752035Y-927303D01*
X-4752695Y-905814D01*
X-4754270Y-892200D01*
X-4756912Y-875944D01*
X-4761382Y-865987D01*
X-4764582Y-855319D01*
X-4768189Y-850849D01*
X-4771237Y-846226D01*
X-4773371Y-839622D01*
X-4777282Y-835101D01*
X-4781804Y-826211D01*
X-4787188Y-820267D01*
X-4789271Y-816051D01*
X-4794910Y-811834D01*
X-4798872Y-805789D01*
X-4804206Y-802132D01*
X-4808474Y-797102D01*
X-4812385Y-795070D01*
X-4818380Y-789736D01*
X-4827168Y-785469D01*
X-4831842Y-780542D01*
X-4835906Y-779221D01*
X-4841544Y-776325D01*
X-4845304Y-773277D01*
X-4849266Y-771550D01*
X-4861153Y-768248D01*
X-4866843Y-765810D01*
X-4875022Y-763727D01*
X-4884826Y-762152D01*
G37*
G36*
X-4903978Y-814425D02*
G01*
X-4909058Y-815390D01*
X-4918303Y-820826D01*
X-4922266Y-824636D01*
X-4925720Y-829462D01*
X-4929378Y-838149D01*
X-4931867Y-842060D01*
X-4948174Y-842619D01*
X-4961991Y-846378D01*
X-4966309Y-848309D01*
X-4976012Y-858367D01*
X-4979974Y-867816D01*
X-4983480Y-871982D01*
X-4986477Y-878078D01*
X-4992725Y-883615D01*
X-4992065Y-886409D01*
X-4990134Y-890371D01*
X-4989372Y-890320D01*
X-4987442Y-888847D01*
X-4981651Y-887679D01*
X-4977790Y-885088D01*
X-4975352Y-881176D01*
X-4972507Y-878586D01*
X-4968544Y-872642D01*
X-4964684Y-870305D01*
X-4958283Y-864006D01*
X-4950764Y-862025D01*
X-4940757Y-861415D01*
X-4931410Y-863244D01*
X-4928463Y-866698D01*
X-4926939Y-875487D01*
X-4928362Y-883767D01*
X-4931308Y-886815D01*
X-4941062Y-889203D01*
X-4944567Y-891032D01*
X-4948123Y-894181D01*
X-4956962Y-898398D01*
X-4963718Y-904748D01*
X-4968036Y-908253D01*
X-4969967Y-912114D01*
X-4974183Y-917803D01*
X-4976723Y-925728D01*
X-4977790Y-932535D01*
X-4978450Y-944575D01*
X-4977231Y-966520D01*
X-4975860Y-977239D01*
X-4967935Y-992936D01*
X-4969052Y-1008735D01*
X-4969052Y-1017117D01*
X-4966919Y-1023569D01*
X-4964836Y-1026515D01*
X-4956657Y-1026515D01*
X-4951780Y-1022959D01*
X-4947564Y-1020775D01*
X-4943144Y-1015441D01*
X-4940198Y-1013917D01*
X-4932527Y-1012291D01*
X-4915712Y-1014577D01*
X-4892548Y-1015085D01*
X-4877104Y-1013307D01*
X-4866132Y-1012748D01*
X-4860798Y-1015492D01*
X-4854956Y-1020571D01*
X-4850333Y-1023721D01*
X-4845151Y-1025499D01*
X-4842611Y-1026972D01*
X-4840986Y-1027023D01*
X-4838801Y-1024686D01*
X-4835601Y-1017676D01*
X-4835906Y-992530D01*
X-4832553Y-988009D01*
X-4830013Y-982776D01*
X-4826254Y-968095D01*
X-4824374Y-959205D01*
X-4823104Y-946251D01*
X-4824425Y-934110D01*
X-4825847Y-931265D01*
X-4830368Y-915517D01*
X-4832299Y-912469D01*
X-4837633Y-905764D01*
X-4845862Y-898194D01*
X-4854448Y-894181D01*
X-4858766Y-890524D01*
X-4869027Y-887171D01*
X-4873142Y-884174D01*
X-4874920Y-875944D01*
X-4872532Y-867054D01*
X-4872126Y-841603D01*
X-4873904Y-834085D01*
X-4877257Y-829360D01*
X-4879848Y-824128D01*
X-4882794Y-821385D01*
X-4892548Y-816051D01*
X-4898694Y-814425D01*
G37*
G36*
X-4997602Y-1181455D02*
G01*
X-5007152Y-1182573D01*
X-5011521Y-1184300D01*
X-5017160Y-1187754D01*
X-5025136Y-1191006D01*
X-5033924Y-1198829D01*
X-5036718Y-1203756D01*
X-5043068Y-1210005D01*
X-5043576Y-1213154D01*
X-5047335Y-1227836D01*
X-5048351Y-1237234D01*
X-5048351Y-1331772D01*
X-5032908Y-1331772D01*
X-5032908Y-1234643D01*
X-5031841Y-1227378D01*
X-5028234Y-1217879D01*
X-5024526Y-1210157D01*
X-5017770Y-1205331D01*
X-5011724Y-1200251D01*
X-5006390Y-1197813D01*
X-4995570Y-1196594D01*
X-4799838Y-1196949D01*
X-4791659Y-1198778D01*
X-4789017Y-1200505D01*
X-4778400Y-1211072D01*
X-4774387Y-1215390D01*
X-4772355Y-1218946D01*
X-4770018Y-1227836D01*
X-4769713Y-1428597D01*
X-4771237Y-1439011D01*
X-4773828Y-1445514D01*
X-4778857Y-1450949D01*
X-4781042Y-1455267D01*
X-4784496Y-1457960D01*
X-4785461Y-1457960D01*
X-4792573Y-1462684D01*
X-4800346Y-1464970D01*
X-4998161Y-1465224D01*
X-5006898Y-1463700D01*
X-5010505Y-1461262D01*
X-5018328Y-1457502D01*
X-5025745Y-1449527D01*
X-5028234Y-1444091D01*
X-5030978Y-1437284D01*
X-5032857Y-1428902D01*
X-5032908Y-1331772D01*
X-5048351Y-1331772D01*
X-5048351Y-1423670D01*
X-5047335Y-1434084D01*
X-5042052Y-1454048D01*
X-5030368Y-1466088D01*
X-5024882Y-1471422D01*
X-5022342Y-1473047D01*
X-5009489Y-1477467D01*
X-5006898Y-1479143D01*
X-4998161Y-1480921D01*
X-4808626Y-1480972D01*
X-4798771Y-1480058D01*
X-4781397Y-1473657D01*
X-4766767Y-1462125D01*
X-4764176Y-1458163D01*
X-4760315Y-1450390D01*
X-4756962Y-1444599D01*
X-4755032Y-1436776D01*
X-4755032Y-1225194D01*
X-4756861Y-1217320D01*
X-4761992Y-1208481D01*
X-4764786Y-1201267D01*
X-4768850Y-1197965D01*
X-4775657Y-1191615D01*
X-4785309Y-1187551D01*
X-4791405Y-1183436D01*
X-4798314Y-1181811D01*
G37*
G36*
X-4988560Y-1217980D02*
G01*
X-4998313Y-1219860D01*
X-5005171Y-1226921D01*
X-5006594Y-1235151D01*
X-5006594Y-1352753D01*
X-4991201Y-1352753D01*
X-4991150Y-1243533D01*
X-4989271Y-1239367D01*
X-4986426Y-1235913D01*
X-4982260Y-1233728D01*
X-4973167Y-1234490D01*
X-4971135Y-1237081D01*
X-4969052Y-1242771D01*
X-4969052Y-1354124D01*
X-4972304Y-1359103D01*
X-4974437Y-1359916D01*
X-4982159Y-1360576D01*
X-4987798Y-1357426D01*
X-4989728Y-1355598D01*
X-4991201Y-1352753D01*
X-5006594Y-1352753D01*
X-5006594Y-1361338D01*
X-5004816Y-1369974D01*
X-5001768Y-1373225D01*
X-4998669Y-1375460D01*
X-4993995Y-1376121D01*
X-4965700Y-1376273D01*
X-4956657Y-1372768D01*
X-4954219Y-1370431D01*
X-4953050Y-1363878D01*
X-4953152Y-1231493D01*
X-4953965Y-1226515D01*
X-4956352Y-1223873D01*
X-4962042Y-1221232D01*
X-4965598Y-1218488D01*
G37*
G36*
X-4915916Y-1218133D02*
G01*
X-4923942Y-1219301D01*
X-4933442Y-1226515D01*
X-4935016Y-1236726D01*
X-4935016Y-1242872D01*
X-4920132Y-1242872D01*
X-4918100Y-1236167D01*
X-4915966Y-1233830D01*
X-4906924Y-1233830D01*
X-4901387Y-1235506D01*
X-4899050Y-1237081D01*
X-4896916Y-1242771D01*
X-4896916Y-1301140D01*
X-4895951Y-1311656D01*
X-4894224Y-1318920D01*
X-4891786Y-1322578D01*
X-4888738Y-1324660D01*
X-4886350Y-1328826D01*
X-4883200Y-1332026D01*
X-4866284Y-1335989D01*
X-4858562Y-1335328D01*
X-4849825Y-1332738D01*
X-4846218Y-1330960D01*
X-4840935Y-1325727D01*
X-4837785Y-1321257D01*
X-4835550Y-1314297D01*
X-4833924Y-1311097D01*
X-4832553Y-1303782D01*
X-4832553Y-1243939D01*
X-4828844Y-1236472D01*
X-4825085Y-1233830D01*
X-4816805Y-1233830D01*
X-4814062Y-1236726D01*
X-4811674Y-1241958D01*
X-4811674Y-1331518D01*
X-4813046Y-1338834D01*
X-4815586Y-1344574D01*
X-4825085Y-1355191D01*
X-4833315Y-1357934D01*
X-4840528Y-1358950D01*
X-4850333Y-1359001D01*
X-4859020Y-1357884D01*
X-4866995Y-1356004D01*
X-4872431Y-1351076D01*
X-4876596Y-1348892D01*
X-4879695Y-1346504D01*
X-4882235Y-1342237D01*
X-4887671Y-1340154D01*
X-4891532Y-1339545D01*
X-4895494Y-1343710D01*
X-4896358Y-1348282D01*
X-4896408Y-1352499D01*
X-4898999Y-1357833D01*
X-4905451Y-1360830D01*
X-4915712Y-1361186D01*
X-4917998Y-1358747D01*
X-4920081Y-1354023D01*
X-4920132Y-1242872D01*
X-4935016Y-1242872D01*
X-4935067Y-1360220D01*
X-4933289Y-1370126D01*
X-4929124Y-1373225D01*
X-4924501Y-1375968D01*
X-4919878Y-1376730D01*
X-4892548Y-1376426D01*
X-4888788Y-1374800D01*
X-4882235Y-1368044D01*
X-4874615Y-1366926D01*
X-4871974Y-1368348D01*
X-4869383Y-1371142D01*
X-4865776Y-1372971D01*
X-4857546Y-1374444D01*
X-4832299Y-1374444D01*
X-4824171Y-1372158D01*
X-4818888Y-1366977D01*
X-4812436Y-1363675D01*
X-4805222Y-1356106D01*
X-4798618Y-1343050D01*
X-4796840Y-1335176D01*
X-4796434Y-1238300D01*
X-4797399Y-1226972D01*
X-4799380Y-1224178D01*
X-4808626Y-1219250D01*
X-4833823Y-1219200D01*
X-4841544Y-1221841D01*
X-4843830Y-1223365D01*
X-4846726Y-1228344D01*
X-4847336Y-1307947D01*
X-4848148Y-1311097D01*
X-4850231Y-1313434D01*
X-4858004Y-1318869D01*
X-4866132Y-1320088D01*
X-4875022Y-1317345D01*
X-4880711Y-1311605D01*
X-4882540Y-1301648D01*
X-4882489Y-1235151D01*
X-4883810Y-1226820D01*
X-4890516Y-1219911D01*
X-4899253Y-1218133D01*
G37*
G36*
X-4981448Y-1384554D02*
G01*
X-4983835Y-1387195D01*
X-4990642Y-1389329D01*
X-4999380Y-1393545D01*
X-5005019Y-1403248D01*
X-5007813Y-1410055D01*
X-5007798Y-1411478D01*
X-4992319Y-1411478D01*
X-4990693Y-1408938D01*
X-4984242Y-1403146D01*
X-4981549Y-1401368D01*
X-4973218Y-1404061D01*
X-4969662Y-1408480D01*
X-4968087Y-1411681D01*
X-4969103Y-1419910D01*
X-4970068Y-1421790D01*
X-4973421Y-1424330D01*
X-4980178Y-1425498D01*
X-4982667Y-1425448D01*
X-4987848Y-1422806D01*
X-4990998Y-1420368D01*
X-4992319Y-1411478D01*
X-5007798Y-1411478D01*
X-5007660Y-1419606D01*
X-5002276Y-1431442D01*
X-4996891Y-1437386D01*
X-4990439Y-1440891D01*
X-4982667Y-1442161D01*
X-4973421Y-1441653D01*
X-4964734Y-1438859D01*
X-4961229Y-1433931D01*
X-4955133Y-1428394D01*
X-4952898Y-1422095D01*
X-4952187Y-1411884D01*
X-4953914Y-1403248D01*
X-4955692Y-1400454D01*
X-4959299Y-1398016D01*
X-4962499Y-1392936D01*
X-4964988Y-1391259D01*
X-4973421Y-1387703D01*
X-4978552Y-1386586D01*
G37*
G36*
X-4900777Y-1583486D02*
G01*
X-4921910Y-1584045D01*
X-4932730Y-1585823D01*
X-4942535Y-1589836D01*
X-4957470Y-1592986D01*
X-4962093Y-1594662D01*
X-4968290Y-1598117D01*
X-4973929Y-1599996D01*
X-4978044Y-1602079D01*
X-4982768Y-1606550D01*
X-4990846Y-1611071D01*
X-4995824Y-1615541D01*
X-4999177Y-1617268D01*
X-5009438Y-1627124D01*
X-5012232Y-1631442D01*
X-5017160Y-1635201D01*
X-5020614Y-1639925D01*
X-5024983Y-1644650D01*
X-5029301Y-1653692D01*
X-5030063Y-1654606D01*
X-5007051Y-1654606D01*
X-5003596Y-1650695D01*
X-5001006Y-1645513D01*
X-4996688Y-1642008D01*
X-4989372Y-1635099D01*
X-4984496Y-1631746D01*
X-4978552Y-1626463D01*
X-4971796Y-1622958D01*
X-4966309Y-1618234D01*
X-4956759Y-1614982D01*
X-4952796Y-1615694D01*
X-4950663Y-1617065D01*
X-4949342Y-1620316D01*
X-4951984Y-1626311D01*
X-4953660Y-1633118D01*
X-4959858Y-1644345D01*
X-4962906Y-1662938D01*
X-4965496Y-1671066D01*
X-4965945Y-1671370D01*
X-4944973Y-1671370D01*
X-4943703Y-1661363D01*
X-4942230Y-1654149D01*
X-4938166Y-1645005D01*
X-4936032Y-1636318D01*
X-4934407Y-1633118D01*
X-4930444Y-1627784D01*
X-4926177Y-1618437D01*
X-4922418Y-1614119D01*
X-4919065Y-1609852D01*
X-4909566Y-1605178D01*
X-4907635Y-1603705D01*
X-4899761Y-1606753D01*
X-4894326Y-1609547D01*
X-4889347Y-1613966D01*
X-4884320Y-1621739D01*
X-4862423Y-1621739D01*
X-4862423Y-1620215D01*
X-4860493Y-1616354D01*
X-4858410Y-1614474D01*
X-4846726Y-1617929D01*
X-4839004Y-1623568D01*
X-4831384Y-1627886D01*
X-4828844Y-1631238D01*
X-4821783Y-1636014D01*
X-4819548Y-1639062D01*
X-4814976Y-1642414D01*
X-4810455Y-1649577D01*
X-4806289Y-1652219D01*
X-4804664Y-1654759D01*
X-4805375Y-1657197D01*
X-4807915Y-1663141D01*
X-4813757Y-1666239D01*
X-4824069Y-1669034D01*
X-4832299Y-1673352D01*
X-4841798Y-1675130D01*
X-4845202Y-1671777D01*
X-4847640Y-1662938D01*
X-4852568Y-1652473D01*
X-4856276Y-1636776D01*
X-4859883Y-1630578D01*
X-4862423Y-1621739D01*
X-4884320Y-1621739D01*
X-4880508Y-1627886D01*
X-4876647Y-1640890D01*
X-4873142Y-1646224D01*
X-4871262Y-1651000D01*
X-4868570Y-1665579D01*
X-4866944Y-1671574D01*
X-4869484Y-1675536D01*
X-4873802Y-1678584D01*
X-4884318Y-1679905D01*
X-4900117Y-1681022D01*
X-4916779Y-1680870D01*
X-4932222Y-1679448D01*
X-4940452Y-1677771D01*
X-4942890Y-1675536D01*
X-4944973Y-1671370D01*
X-4965945Y-1671370D01*
X-4968290Y-1672996D01*
X-4972659Y-1674723D01*
X-4974945Y-1674672D01*
X-4981143Y-1672843D01*
X-4987848Y-1669034D01*
X-4998567Y-1666290D01*
X-5002276Y-1664309D01*
X-5003850Y-1662938D01*
X-5007051Y-1654606D01*
X-5030063Y-1654606D01*
X-5033924Y-1659178D01*
X-5036616Y-1666341D01*
X-5040630Y-1671320D01*
X-5042763Y-1677111D01*
X-5045354Y-1687575D01*
X-5049824Y-1701190D01*
X-5051450Y-1711147D01*
X-5052622Y-1733702D01*
X-5034026Y-1733702D01*
X-5033365Y-1722628D01*
X-5031943Y-1714042D01*
X-5029403Y-1705914D01*
X-5026101Y-1688084D01*
X-5023459Y-1683054D01*
X-5021732Y-1682089D01*
X-5014468Y-1680057D01*
X-5013604Y-1680921D01*
X-4998516Y-1685747D01*
X-4993487Y-1689252D01*
X-4989982Y-1691081D01*
X-4973472Y-1694078D01*
X-4970830Y-1696059D01*
X-4969103Y-1702765D01*
X-4969564Y-1738884D01*
X-4951628Y-1738884D01*
X-4951018Y-1714246D01*
X-4949952Y-1705356D01*
X-4948834Y-1703070D01*
X-4942535Y-1699615D01*
X-4923993Y-1700123D01*
X-4888433Y-1700123D01*
X-4867148Y-1699666D01*
X-4864608Y-1701393D01*
X-4862372Y-1705051D01*
X-4861255Y-1723694D01*
X-4861915Y-1756664D01*
X-4863231Y-1763268D01*
X-4843373Y-1763268D01*
X-4842306Y-1753565D01*
X-4841697Y-1725625D01*
X-4843018Y-1705356D01*
X-4842916Y-1703374D01*
X-4840782Y-1696262D01*
X-4834382Y-1693113D01*
X-4823714Y-1691538D01*
X-4818380Y-1688998D01*
X-4812893Y-1685188D01*
X-4794351Y-1679905D01*
X-4791862Y-1678939D01*
X-4788255Y-1684426D01*
X-4785207Y-1693722D01*
X-4783175Y-1697228D01*
X-4781042Y-1704136D01*
X-4779568Y-1719529D01*
X-4778908Y-1734159D01*
X-4780026Y-1753463D01*
X-4781651Y-1764538D01*
X-4785258Y-1772920D01*
X-4788306Y-1781911D01*
X-4792116Y-1785620D01*
X-4802479Y-1783791D01*
X-4808067Y-1781911D01*
X-4813808Y-1779016D01*
X-4819396Y-1777390D01*
X-4833061Y-1774850D01*
X-4837633Y-1772615D01*
X-4841900Y-1766824D01*
X-4843373Y-1763268D01*
X-4863231Y-1763268D01*
X-4863439Y-1764182D01*
X-4867198Y-1766519D01*
X-4885842Y-1765858D01*
X-4904892Y-1764792D01*
X-4918811Y-1765350D01*
X-4937353Y-1766417D01*
X-4940452Y-1766824D01*
X-4946142Y-1764944D01*
X-4948885Y-1763623D01*
X-4950561Y-1756156D01*
X-4951628Y-1738884D01*
X-4969564Y-1738884D01*
X-4969611Y-1742541D01*
X-4968798Y-1763877D01*
X-4970576Y-1768703D01*
X-4973675Y-1772564D01*
X-4979619Y-1774850D01*
X-4992979Y-1777390D01*
X-4998618Y-1779016D01*
X-5004511Y-1782064D01*
X-5013452Y-1784705D01*
X-5017211Y-1784604D01*
X-5022850Y-1783232D01*
X-5025136Y-1780489D01*
X-5026253Y-1776577D01*
X-5028387Y-1765046D01*
X-5032857Y-1747977D01*
X-5034026Y-1733702D01*
X-5052622Y-1733702D01*
X-5051450Y-1755241D01*
X-5049469Y-1766112D01*
X-5045710Y-1777085D01*
X-5042560Y-1790192D01*
X-5040071Y-1795272D01*
X-5036616Y-1800148D01*
X-5033775Y-1806448D01*
X-5007152Y-1806448D01*
X-5007152Y-1804619D01*
X-5001209Y-1801571D01*
X-4991963Y-1798777D01*
X-4982667Y-1794052D01*
X-4973421Y-1792427D01*
X-4967681Y-1794103D01*
X-4964099Y-1796643D01*
X-4944872Y-1796643D01*
X-4943856Y-1788617D01*
X-4940808Y-1785823D01*
X-4932730Y-1784959D01*
X-4874514Y-1784959D01*
X-4867554Y-1788414D01*
X-4867554Y-1796999D01*
X-4868621Y-1800656D01*
X-4871262Y-1815338D01*
X-4873802Y-1820570D01*
X-4877308Y-1826869D01*
X-4880051Y-1837029D01*
X-4883505Y-1842566D01*
X-4886179Y-1847748D01*
X-4863084Y-1847748D01*
X-4860798Y-1837842D01*
X-4855718Y-1827377D01*
X-4851958Y-1811680D01*
X-4848148Y-1804314D01*
X-4846269Y-1796592D01*
X-4843221Y-1793036D01*
X-4841544Y-1792122D01*
X-4831791Y-1793595D01*
X-4826609Y-1795322D01*
X-4819396Y-1799183D01*
X-4808220Y-1802231D01*
X-4804816Y-1805381D01*
X-4805934Y-1813763D01*
X-4824069Y-1831949D01*
X-4829708Y-1835912D01*
X-4835398Y-1840890D01*
X-4844135Y-1845106D01*
X-4849418Y-1848612D01*
X-4856937Y-1851202D01*
X-4859375Y-1851202D01*
X-4863084Y-1847748D01*
X-4886179Y-1847748D01*
X-4886756Y-1848866D01*
X-4898288Y-1860448D01*
X-4907483Y-1861921D01*
X-4915712Y-1859584D01*
X-4918202Y-1858264D01*
X-4921808Y-1852523D01*
X-4926533Y-1847138D01*
X-4930140Y-1838350D01*
X-4934508Y-1833422D01*
X-4935423Y-1831543D01*
X-4938674Y-1819757D01*
X-4941671Y-1813661D01*
X-4943246Y-1807464D01*
X-4944872Y-1796643D01*
X-4964099Y-1796643D01*
X-4961331Y-1812696D01*
X-4959299Y-1823008D01*
X-4954168Y-1831543D01*
X-4951120Y-1842363D01*
X-4947310Y-1847392D01*
X-4948682Y-1849628D01*
X-4950764Y-1850288D01*
X-4957267Y-1850999D01*
X-4962702Y-1848764D01*
X-4966360Y-1845919D01*
X-4975961Y-1841754D01*
X-4980127Y-1837740D01*
X-4984750Y-1834591D01*
X-4988864Y-1830171D01*
X-4997196Y-1823516D01*
X-5002174Y-1817928D01*
X-5004816Y-1813915D01*
X-5007152Y-1806448D01*
X-5033775Y-1806448D01*
X-5033010Y-1808175D01*
X-5028895Y-1812696D01*
X-5025136Y-1820875D01*
X-5019395Y-1827377D01*
X-5017516Y-1831136D01*
X-5013706Y-1834184D01*
X-5005882Y-1842363D01*
X-4998669Y-1848916D01*
X-4993995Y-1851660D01*
X-4985258Y-1859076D01*
X-4978044Y-1862632D01*
X-4974082Y-1865833D01*
X-4961077Y-1870100D01*
X-4957419Y-1872538D01*
X-4952288Y-1875129D01*
X-4947666Y-1876348D01*
X-4935321Y-1878431D01*
X-4925009Y-1881124D01*
X-4916271Y-1882546D01*
X-4891532Y-1882190D01*
X-4877104Y-1878533D01*
X-4860086Y-1875231D01*
X-4855921Y-1873351D01*
X-4851501Y-1870049D01*
X-4842611Y-1867357D01*
X-4838598Y-1865833D01*
X-4834178Y-1862683D01*
X-4823510Y-1857502D01*
X-4819650Y-1852828D01*
X-4812538Y-1848104D01*
X-4811522Y-1846122D01*
X-4807051Y-1843125D01*
X-4798009Y-1833930D01*
X-4794504Y-1828546D01*
X-4788712Y-1823313D01*
X-4786782Y-1819402D01*
X-4781753Y-1813763D01*
X-4777994Y-1804111D01*
X-4773371Y-1797304D01*
X-4769713Y-1785416D01*
X-4765903Y-1780286D01*
X-4764024Y-1774494D01*
X-4761026Y-1753006D01*
X-4759960Y-1743608D01*
X-4759299Y-1732584D01*
X-4760468Y-1717192D01*
X-4763516Y-1694891D01*
X-4765141Y-1687017D01*
X-4769713Y-1680210D01*
X-4772964Y-1670304D01*
X-4774488Y-1667154D01*
X-4777790Y-1662785D01*
X-4781194Y-1653793D01*
X-4786071Y-1648155D01*
X-4788458Y-1643075D01*
X-4793640Y-1637842D01*
X-4798822Y-1631492D01*
X-4808626Y-1620723D01*
X-4818888Y-1613611D01*
X-4820970Y-1611274D01*
X-4828184Y-1607566D01*
X-4833518Y-1602130D01*
X-4845050Y-1597558D01*
X-4849368Y-1594764D01*
X-4854651Y-1592986D01*
X-4868875Y-1590040D01*
X-4878628Y-1586128D01*
X-4885334Y-1584706D01*
G37*
G36*
X-5022850Y-1986534D02*
G01*
X-5029708Y-1988921D01*
X-5035143Y-1993087D01*
X-5039868Y-1995322D01*
X-5042306Y-1997557D01*
X-5045913Y-2003298D01*
X-5048910Y-2006549D01*
X-5051704Y-2014321D01*
X-5052009Y-2173732D01*
X-5050282Y-2177135D01*
X-5047691Y-2179980D01*
X-5044490Y-2177694D01*
X-5037785Y-2171496D01*
X-5030063Y-2165502D01*
X-5027472Y-2162657D01*
X-5022850Y-2159457D01*
X-5008422Y-2145080D01*
X-5005374Y-2143201D01*
X-5000193Y-2138273D01*
X-4996078Y-2135530D01*
X-4981854Y-2122170D01*
X-4972405Y-2114600D01*
X-4965293Y-2109622D01*
X-4959502Y-2104288D01*
X-4954778Y-2101545D01*
X-4952949Y-2098598D01*
X-4950256Y-2095652D01*
X-4945176Y-2093010D01*
X-4939944Y-2088032D01*
X-4931714Y-2083511D01*
X-4927041Y-2079091D01*
X-4920488Y-2075840D01*
X-4915052Y-2070760D01*
X-4905298Y-2066493D01*
X-4899914Y-2062327D01*
X-4894630Y-2061718D01*
X-4889855Y-2061667D01*
X-4872990Y-2070709D01*
X-4867808Y-2075738D01*
X-4861966Y-2078482D01*
X-4857038Y-2083003D01*
X-4848809Y-2087575D01*
X-4843373Y-2092553D01*
X-4839258Y-2094687D01*
X-4835398Y-2100681D01*
X-4828438Y-2104440D01*
X-4824577Y-2108149D01*
X-4817872Y-2112619D01*
X-4812182Y-2118106D01*
X-4808016Y-2120239D01*
X-4801412Y-2127758D01*
X-4797653Y-2129688D01*
X-4793284Y-2135022D01*
X-4790084Y-2136749D01*
X-4783886Y-2142642D01*
X-4779467Y-2145639D01*
X-4776216Y-2149398D01*
X-4771542Y-2152954D01*
X-4755032Y-2168347D01*
X-4749393Y-2172360D01*
X-4745431Y-2176881D01*
X-4742637Y-2178862D01*
X-4738674Y-2177491D01*
X-4735677Y-2174595D01*
X-4735982Y-2015896D01*
X-4739386Y-2005126D01*
X-4747056Y-1995779D01*
X-4754880Y-1991918D01*
X-4758131Y-1989074D01*
X-4760214Y-1988007D01*
X-4767376Y-1986534D01*
G37*
G36*
X-4891532Y-2083307D02*
G01*
X-4899761Y-2084070D01*
X-4907483Y-2087118D01*
X-4909769Y-2088388D01*
X-4914442Y-2092553D01*
X-4922875Y-2096973D01*
X-4928616Y-2103120D01*
X-4933238Y-2106066D01*
X-4937556Y-2110232D01*
X-4942535Y-2113127D01*
X-4947158Y-2116988D01*
X-4951780Y-2120188D01*
X-4967224Y-2134514D01*
X-4974437Y-2139340D01*
X-4978400Y-2143404D01*
X-4982667Y-2146096D01*
X-4988915Y-2152548D01*
X-4992573Y-2155088D01*
X-4995570Y-2159203D01*
X-5002479Y-2163876D01*
X-5005120Y-2167026D01*
X-5011166Y-2171547D01*
X-5026304Y-2186025D01*
X-5031841Y-2190242D01*
X-5035651Y-2194966D01*
X-5039614Y-2199182D01*
X-5030571Y-2206802D01*
X-5023916Y-2210054D01*
X-5015128Y-2210765D01*
X-4776165Y-2210917D01*
X-4764328Y-2209952D01*
X-4759147Y-2208174D01*
X-4755540Y-2204770D01*
X-4749901Y-2201164D01*
X-4748428Y-2199386D01*
X-4749800Y-2196744D01*
X-4753051Y-2194712D01*
X-4758385Y-2189175D01*
X-4768799Y-2179269D01*
X-4775352Y-2172614D01*
X-4780127Y-2169515D01*
X-4807762Y-2144420D01*
X-4808778Y-2144420D01*
X-4815586Y-2138121D01*
X-4819599Y-2135581D01*
X-4823358Y-2131009D01*
X-4826609Y-2129078D01*
X-4830064Y-2125827D01*
X-4832146Y-2122373D01*
X-4838141Y-2119325D01*
X-4844237Y-2114143D01*
X-4851501Y-2109419D01*
X-4854143Y-2105863D01*
X-4861356Y-2101850D01*
X-4865268Y-2096516D01*
X-4872736Y-2092756D01*
X-4878628Y-2088083D01*
X-4882235Y-2085898D01*
G37*
G36*
X1763014Y-2150567D02*
G01*
X1744421Y-2154072D01*
X1736699Y-2158034D01*
X1729536Y-2163013D01*
X1712112Y-2177846D01*
X1708657Y-2177846D01*
X1706524Y-2182012D01*
X1704848Y-2191512D01*
X1698650Y-2203399D01*
X1697532Y-2228951D01*
X1706016Y-2246122D01*
X1711299Y-2259177D01*
X1719935Y-2267508D01*
X1728368Y-2282240D01*
X1732635Y-2285390D01*
X1737918Y-2293924D01*
X1745081Y-2304034D01*
X1751075Y-2312924D01*
X1760829Y-2325674D01*
X1766163Y-2336393D01*
X1771396Y-2346147D01*
X1775002Y-2350363D01*
X1781454Y-2361285D01*
X1787143Y-2373172D01*
X1791106Y-2376424D01*
X1791106Y-2379370D01*
X1798269Y-2389784D01*
X1798320Y-2393645D01*
X1805482Y-2402586D01*
X1805482Y-2407158D01*
X1808276Y-2412339D01*
X1811274Y-2414727D01*
X1813814Y-2424277D01*
X1819605Y-2432100D01*
X1821078Y-2439924D01*
X1825802Y-2444191D01*
X1828292Y-2453386D01*
X1834184Y-2461971D01*
X1834184Y-2464968D01*
X1841144Y-2478024D01*
X1842820Y-2485948D01*
X1847189Y-2493111D01*
X1850186Y-2504948D01*
X1856943Y-2517648D01*
X1856943Y-2521610D01*
X1861667Y-2529332D01*
X1864461Y-2540609D01*
X1868932Y-2549448D01*
X1872386Y-2564333D01*
X1878533Y-2583332D01*
X1883511Y-2597556D01*
X1885442Y-2609443D01*
X1890522Y-2620721D01*
X1892706Y-2639110D01*
X1897634Y-2651658D01*
X1900021Y-2668828D01*
X1905762Y-2692552D01*
X1908556Y-2712720D01*
X1912061Y-2730855D01*
X1914245Y-2761437D01*
X1917903Y-2775661D01*
X1920595Y-2831490D01*
X1919122Y-2933598D01*
X1916785Y-2948990D01*
X1914296Y-2959709D01*
X1912061Y-2990240D01*
X1908556Y-3008376D01*
X1905762Y-3028543D01*
X1900021Y-3052318D01*
X1897837Y-3067761D01*
X1892503Y-3083204D01*
X1890522Y-3100374D01*
X1885442Y-3111652D01*
X1883511Y-3123539D01*
X1878533Y-3137814D01*
X1872386Y-3156762D01*
X1868932Y-3171698D01*
X1864410Y-3180537D01*
X1862632Y-3188868D01*
X1856943Y-3200044D01*
X1856943Y-3203448D01*
X1850186Y-3216198D01*
X1847189Y-3228035D01*
X1842820Y-3235147D01*
X1841144Y-3243072D01*
X1834184Y-3256178D01*
X1834184Y-3259175D01*
X1828292Y-3267760D01*
X1825802Y-3276904D01*
X1821078Y-3281172D01*
X1819605Y-3289046D01*
X1813814Y-3296818D01*
X1811274Y-3306368D01*
X1808276Y-3308756D01*
X1805482Y-3313937D01*
X1805482Y-3318510D01*
X1798320Y-3327501D01*
X1798269Y-3331311D01*
X1791106Y-3341776D01*
X1791106Y-3344062D01*
X1785162Y-3351072D01*
X1785162Y-3353968D01*
X1777390Y-3366160D01*
X1766112Y-3384753D01*
X1760880Y-3395421D01*
X1748078Y-3412388D01*
X1748078Y-3414725D01*
X1744167Y-3417976D01*
X1737918Y-3427171D01*
X1732635Y-3435756D01*
X1728368Y-3438855D01*
X1719935Y-3453637D01*
X1711299Y-3461918D01*
X1706016Y-3474974D01*
X1697532Y-3492195D01*
X1698650Y-3517747D01*
X1704848Y-3529584D01*
X1706524Y-3539083D01*
X1708657Y-3543249D01*
X1712112Y-3543249D01*
X1729536Y-3558082D01*
X1736699Y-3563061D01*
X1744573Y-3567125D01*
X1760626Y-3570274D01*
X1774088Y-3570579D01*
X1784654Y-3565906D01*
X1794459Y-3564382D01*
X1809191Y-3550970D01*
X1817573Y-3544112D01*
X1822297Y-3534968D01*
X1824482Y-3534968D01*
X1825904Y-3530396D01*
X1834184Y-3520084D01*
X1834184Y-3517442D01*
X1837893Y-3514394D01*
X1851050Y-3494582D01*
X1853387Y-3494582D01*
X1856232Y-3488029D01*
X1863445Y-3477361D01*
X1869948Y-3470249D01*
X1879752Y-3450742D01*
X1882089Y-3449269D01*
X1885746Y-3440582D01*
X1890166Y-3435807D01*
X1894027Y-3427476D01*
X1902358Y-3414420D01*
X1907133Y-3404666D01*
X1910892Y-3401568D01*
X1914448Y-3394710D01*
X1918766Y-3390442D01*
X1920290Y-3380943D01*
X1924964Y-3375050D01*
X1929739Y-3362502D01*
X1933244Y-3358642D01*
X1935835Y-3348939D01*
X1940509Y-3344722D01*
X1942084Y-3337255D01*
X1949043Y-3326739D01*
X1949094Y-3323031D01*
X1956206Y-3312566D01*
X1956206Y-3308654D01*
X1961032Y-3299256D01*
X1964283Y-3288588D01*
X1970582Y-3276955D01*
X1970582Y-3271926D01*
X1975612Y-3262528D01*
X1979218Y-3250590D01*
X1983739Y-3244240D01*
X1985772Y-3233420D01*
X1989632Y-3227578D01*
X1994407Y-3211423D01*
X1999183Y-3198368D01*
X1999284Y-3192830D01*
X2006447Y-3176574D01*
X2006447Y-3169462D01*
X2011222Y-3158388D01*
X2014778Y-3143097D01*
X2019350Y-3134207D01*
X2021027Y-3119983D01*
X2024227Y-3108096D01*
X2027885Y-3098596D01*
X2027986Y-3087624D01*
X2034082Y-3066694D01*
X2036165Y-3051098D01*
X2041296Y-3032150D01*
X2043379Y-3002432D01*
X2049424Y-2966821D01*
X2055469Y-2862224D01*
X2049424Y-2754274D01*
X2043379Y-2718663D01*
X2041296Y-2688996D01*
X2036165Y-2669997D01*
X2034082Y-2654452D01*
X2027986Y-2633522D01*
X2027885Y-2622499D01*
X2024227Y-2612999D01*
X2021027Y-2601112D01*
X2019350Y-2586888D01*
X2014778Y-2578049D01*
X2011222Y-2562707D01*
X2006447Y-2551684D01*
X2006447Y-2544572D01*
X1999284Y-2528316D01*
X1999183Y-2522778D01*
X1994407Y-2509723D01*
X1989632Y-2493518D01*
X1985772Y-2487676D01*
X1983739Y-2476906D01*
X1979218Y-2470556D01*
X1975612Y-2458567D01*
X1970582Y-2449220D01*
X1970582Y-2444191D01*
X1964283Y-2432558D01*
X1961032Y-2421839D01*
X1956206Y-2412441D01*
X1956206Y-2408580D01*
X1949094Y-2398115D01*
X1949043Y-2394356D01*
X1942084Y-2383840D01*
X1940509Y-2376373D01*
X1935835Y-2372207D01*
X1933244Y-2362504D01*
X1929739Y-2358593D01*
X1924964Y-2346045D01*
X1920290Y-2340152D01*
X1918766Y-2330653D01*
X1914448Y-2326386D01*
X1910892Y-2319578D01*
X1907133Y-2316480D01*
X1902358Y-2306675D01*
X1894027Y-2293620D01*
X1888896Y-2282342D01*
X1886712Y-2282342D01*
X1881987Y-2271776D01*
X1879854Y-2270455D01*
X1870760Y-2252218D01*
X1862328Y-2242312D01*
X1857502Y-2234387D01*
X1853895Y-2227834D01*
X1849628Y-2224684D01*
X1844344Y-2216150D01*
X1838096Y-2206904D01*
X1834184Y-2203704D01*
X1834184Y-2201011D01*
X1825904Y-2190699D01*
X1824482Y-2186178D01*
X1822297Y-2186178D01*
X1817573Y-2177034D01*
X1809191Y-2170125D01*
X1794459Y-2156764D01*
X1784654Y-2155190D01*
X1774088Y-2150567D01*
G37*
G36*
X1553667Y-2283460D02*
G01*
X1536954Y-2286914D01*
X1521815Y-2293213D01*
X1517192Y-2297785D01*
X1514957Y-2297785D01*
X1500428Y-2311450D01*
X1493469Y-2317496D01*
X1489557Y-2330856D01*
X1484884Y-2336749D01*
X1484884Y-2365146D01*
X1488389Y-2368042D01*
X1491234Y-2376728D01*
X1496568Y-2386228D01*
X1498244Y-2393238D01*
X1511401Y-2408783D01*
X1519428Y-2418943D01*
X1520952Y-2423617D01*
X1523136Y-2423617D01*
X1527708Y-2432558D01*
X1532737Y-2437079D01*
X1532737Y-2439924D01*
X1539849Y-2448763D01*
X1541424Y-2453894D01*
X1545640Y-2458669D01*
X1548384Y-2467254D01*
X1553159Y-2471572D01*
X1557578Y-2481529D01*
X1560068Y-2483002D01*
X1572361Y-2507335D01*
X1575714Y-2513279D01*
X1604518Y-2574290D01*
X1604518Y-2578811D01*
X1610766Y-2590444D01*
X1614220Y-2601772D01*
X1618640Y-2609443D01*
X1620266Y-2618841D01*
X1624888Y-2627782D01*
X1627428Y-2640330D01*
X1633067Y-2656941D01*
X1639570Y-2678328D01*
X1643684Y-2699664D01*
X1647342Y-2715107D01*
X1651406Y-2735326D01*
X1654657Y-2755493D01*
X1657400Y-2779217D01*
X1661363Y-2798216D01*
X1661363Y-2929991D01*
X1654962Y-2966821D01*
X1653387Y-2990596D01*
X1647596Y-3007614D01*
X1647596Y-3015589D01*
X1643989Y-3028543D01*
X1639163Y-3052318D01*
X1633016Y-3072485D01*
X1629410Y-3083204D01*
X1625803Y-3097428D01*
X1620977Y-3109315D01*
X1618640Y-3118815D01*
X1613103Y-3130651D01*
X1610512Y-3140456D01*
X1605584Y-3146653D01*
X1604365Y-3155594D01*
X1590395Y-3185312D01*
X1588719Y-3191205D01*
X1584401Y-3195980D01*
X1582166Y-3204260D01*
X1575816Y-3213506D01*
X1575765Y-3217367D01*
X1568653Y-3227781D01*
X1568653Y-3235350D01*
X1561439Y-3241700D01*
X1561439Y-3244291D01*
X1556258Y-3251555D01*
X1550873Y-3261258D01*
X1546606Y-3269589D01*
X1541881Y-3274974D01*
X1536395Y-3283813D01*
X1531721Y-3293770D01*
X1527048Y-3296259D01*
X1524558Y-3302812D01*
X1514754Y-3315868D01*
X1510639Y-3322777D01*
X1499158Y-3336696D01*
X1495704Y-3346297D01*
X1490878Y-3352444D01*
X1490878Y-3355340D01*
X1484884Y-3364077D01*
X1484884Y-3391509D01*
X1489557Y-3397961D01*
X1492504Y-3409594D01*
X1520190Y-3436365D01*
X1528572Y-3439058D01*
X1533347Y-3443224D01*
X1536954Y-3444646D01*
X1568043Y-3443884D01*
X1586077Y-3434638D01*
X1591056Y-3429863D01*
X1599590Y-3422345D01*
X1602994Y-3420364D01*
X1615897Y-3401720D01*
X1620570Y-3394252D01*
X1622552Y-3393440D01*
X1627073Y-3384600D01*
X1631035Y-3381349D01*
X1635658Y-3372865D01*
X1643938Y-3362198D01*
X1649933Y-3351072D01*
X1652422Y-3349548D01*
X1656080Y-3340862D01*
X1660499Y-3336086D01*
X1664360Y-3327755D01*
X1672640Y-3314700D01*
X1676857Y-3306368D01*
X1683461Y-3298596D01*
X1683461Y-3294379D01*
X1689404Y-3286404D01*
X1692148Y-3277870D01*
X1696415Y-3273145D01*
X1698701Y-3264814D01*
X1705000Y-3255619D01*
X1705000Y-3251657D01*
X1711045Y-3243529D01*
X1713534Y-3233978D01*
X1716582Y-3231591D01*
X1719376Y-3226409D01*
X1719376Y-3220923D01*
X1724050Y-3213303D01*
X1727860Y-3200298D01*
X1732635Y-3194253D01*
X1734515Y-3182670D01*
X1739392Y-3174593D01*
X1742135Y-3163316D01*
X1746859Y-3155594D01*
X1746910Y-3150870D01*
X1752955Y-3134207D01*
X1756410Y-3119374D01*
X1761134Y-3110179D01*
X1763420Y-3096158D01*
X1769618Y-3084626D01*
X1769618Y-3073349D01*
X1775714Y-3052470D01*
X1777847Y-3035554D01*
X1780539Y-3028543D01*
X1783842Y-3011932D01*
X1786432Y-2989783D01*
X1790039Y-2975152D01*
X1792224Y-2945434D01*
X1794764Y-2916936D01*
X1797456Y-2871825D01*
X1797456Y-2856382D01*
X1794814Y-2812491D01*
X1790954Y-2768549D01*
X1787550Y-2744673D01*
X1785416Y-2732938D01*
X1783791Y-2715107D01*
X1776780Y-2688793D01*
X1776780Y-2680360D01*
X1769922Y-2658110D01*
X1768195Y-2643886D01*
X1762404Y-2630271D01*
X1762404Y-2622753D01*
X1755597Y-2608275D01*
X1754073Y-2596946D01*
X1749094Y-2587244D01*
X1745945Y-2570734D01*
X1742236Y-2566670D01*
X1739595Y-2554884D01*
X1734820Y-2547315D01*
X1731213Y-2535224D01*
X1726793Y-2527503D01*
X1725269Y-2518867D01*
X1719224Y-2510028D01*
X1717852Y-2502611D01*
X1712214Y-2491892D01*
X1708556Y-2483612D01*
X1705203Y-2477668D01*
X1697837Y-2462784D01*
X1697837Y-2458364D01*
X1690624Y-2449423D01*
X1690624Y-2444089D01*
X1682292Y-2431999D01*
X1682292Y-2429865D01*
X1678432Y-2426716D01*
X1673098Y-2414727D01*
X1669135Y-2411476D01*
X1669135Y-2408580D01*
X1661972Y-2398115D01*
X1661922Y-2394000D01*
X1655927Y-2387396D01*
X1647596Y-2373477D01*
X1647596Y-2371750D01*
X1642567Y-2367229D01*
X1638858Y-2360117D01*
X1634286Y-2354173D01*
X1618894Y-2332228D01*
X1618894Y-2329840D01*
X1605940Y-2317089D01*
X1602130Y-2309774D01*
X1584807Y-2294991D01*
X1581708Y-2291892D01*
X1571650Y-2289200D01*
X1563268Y-2284984D01*
G37*
G36*
X1378102Y-2411425D02*
G01*
X1350721Y-2412644D01*
X1343863Y-2417673D01*
X1330045Y-2422855D01*
X1324000Y-2429103D01*
X1311503Y-2443226D01*
X1307388Y-2449169D01*
X1305712Y-2450338D01*
X1300226Y-2464612D01*
X1300276Y-2489555D01*
X1304544Y-2503779D01*
X1307795Y-2507437D01*
X1311351Y-2517394D01*
X1317447Y-2526284D01*
X1317447Y-2528976D01*
X1322832Y-2535682D01*
X1329283Y-2546502D01*
X1335481Y-2558389D01*
X1342542Y-2570276D01*
X1347673Y-2580944D01*
X1353312Y-2587650D01*
X1353312Y-2593086D01*
X1359662Y-2602331D01*
X1362659Y-2613558D01*
X1367688Y-2621584D01*
X1367688Y-2628696D01*
X1374038Y-2637942D01*
X1377035Y-2649169D01*
X1382014Y-2657195D01*
X1382014Y-2664460D01*
X1388059Y-2671572D01*
X1390142Y-2687828D01*
X1396390Y-2700883D01*
X1396390Y-2705455D01*
X1403400Y-2735326D01*
X1406042Y-2751937D01*
X1409496Y-2767380D01*
X1412494Y-2799435D01*
X1412443Y-2878937D01*
X1409700Y-2912618D01*
X1403553Y-2947822D01*
X1400200Y-2962097D01*
X1396492Y-2971546D01*
X1396390Y-2981858D01*
X1390294Y-2996946D01*
X1388211Y-3009646D01*
X1382014Y-3021177D01*
X1382014Y-3030372D01*
X1376172Y-3039262D01*
X1373886Y-3049371D01*
X1370279Y-3054858D01*
X1366774Y-3066542D01*
X1353312Y-3092602D01*
X1353312Y-3095193D01*
X1347470Y-3103067D01*
X1345895Y-3110484D01*
X1331772Y-3132988D01*
X1331772Y-3135172D01*
X1325829Y-3142996D01*
X1325829Y-3145332D01*
X1320139Y-3152038D01*
X1315008Y-3162147D01*
X1312824Y-3162147D01*
X1311300Y-3166821D01*
X1303274Y-3176981D01*
X1289913Y-3192729D01*
X1289913Y-3197504D01*
X1282954Y-3210610D01*
X1279144Y-3223666D01*
X1279144Y-3242056D01*
X1283208Y-3255365D01*
X1288338Y-3262477D01*
X1290878Y-3269894D01*
X1307998Y-3286658D01*
X1313230Y-3288233D01*
X1319580Y-3294126D01*
X1346758Y-3299612D01*
X1350111Y-3299866D01*
X1363472Y-3295243D01*
X1376680Y-3293821D01*
X1379321Y-3292144D01*
X1383842Y-3283458D01*
X1401622Y-3270758D01*
X1403756Y-3262477D01*
X1410766Y-3256076D01*
X1410766Y-3253536D01*
X1426159Y-3231591D01*
X1431086Y-3225292D01*
X1431086Y-3222752D01*
X1437894Y-3214979D01*
X1443126Y-3204260D01*
X1448765Y-3193491D01*
X1452626Y-3190341D01*
X1452626Y-3187090D01*
X1460601Y-3178149D01*
X1462227Y-3171698D01*
X1468170Y-3163011D01*
X1468170Y-3157728D01*
X1475333Y-3148736D01*
X1475333Y-3144062D01*
X1481124Y-3133039D01*
X1489710Y-3115056D01*
X1489710Y-3112211D01*
X1496872Y-3098850D01*
X1496872Y-3093821D01*
X1502511Y-3083204D01*
X1504137Y-3076448D01*
X1509928Y-3067761D01*
X1512163Y-3052267D01*
X1516176Y-3042818D01*
X1519783Y-3027476D01*
X1524355Y-3017469D01*
X1526743Y-3000756D01*
X1531670Y-2988208D01*
X1533855Y-2969818D01*
X1538884Y-2953766D01*
X1541018Y-2925267D01*
X1543558Y-2912364D01*
X1547266Y-2887370D01*
X1547368Y-2798216D01*
X1544574Y-2779217D01*
X1541221Y-2759049D01*
X1538833Y-2731719D01*
X1533855Y-2715107D01*
X1531620Y-2696565D01*
X1525574Y-2679090D01*
X1525524Y-2672384D01*
X1518412Y-2652318D01*
X1518361Y-2643886D01*
X1512265Y-2630830D01*
X1510030Y-2619349D01*
X1505356Y-2613456D01*
X1501444Y-2599944D01*
X1498092Y-2596235D01*
X1495704Y-2583738D01*
X1491030Y-2577795D01*
X1487119Y-2564587D01*
X1483410Y-2558897D01*
X1481277Y-2547823D01*
X1476806Y-2542946D01*
X1473911Y-2533446D01*
X1468170Y-2524607D01*
X1468170Y-2522524D01*
X1461008Y-2512110D01*
X1460957Y-2508148D01*
X1452626Y-2498191D01*
X1452626Y-2495194D01*
X1447444Y-2488692D01*
X1442008Y-2478836D01*
X1436725Y-2467559D01*
X1434541Y-2467559D01*
X1430477Y-2458618D01*
X1425295Y-2451455D01*
X1423670Y-2442718D01*
X1414932Y-2436164D01*
X1399590Y-2421026D01*
X1389786Y-2417673D01*
G37*
G36*
X1182979Y-2532634D02*
G01*
X1151788Y-2533497D01*
X1139799Y-2540000D01*
X1134922Y-2540000D01*
X1109319Y-2564790D01*
X1109268Y-2569057D01*
X1102106Y-2579522D01*
X1101547Y-2597556D01*
X1102004Y-2610256D01*
X1109218Y-2625598D01*
X1110792Y-2637434D01*
X1115415Y-2639872D01*
X1120241Y-2649829D01*
X1126642Y-2661869D01*
X1130808Y-2667558D01*
X1130808Y-2671775D01*
X1138021Y-2679242D01*
X1138021Y-2685440D01*
X1144320Y-2698496D01*
X1146302Y-2710078D01*
X1149959Y-2714091D01*
X1154988Y-2728163D01*
X1158443Y-2740050D01*
X1162050Y-2761437D01*
X1165809Y-2773273D01*
X1167739Y-2801772D01*
X1170228Y-2827934D01*
X1167536Y-2836824D01*
X1170228Y-2842615D01*
X1167739Y-2861157D01*
X1165809Y-2901645D01*
X1160475Y-2912059D01*
X1158392Y-2928366D01*
X1153464Y-2939389D01*
X1151382Y-2953766D01*
X1142898Y-2974594D01*
X1139190Y-2979826D01*
X1139190Y-2983433D01*
X1130808Y-2999943D01*
X1130808Y-3004058D01*
X1125220Y-3010763D01*
X1122375Y-3019298D01*
X1116482Y-3027222D01*
X1116482Y-3029915D01*
X1110488Y-3035503D01*
X1110488Y-3038449D01*
X1104849Y-3045206D01*
X1099667Y-3054654D01*
X1091336Y-3065373D01*
X1087526Y-3073654D01*
X1084275Y-3079597D01*
X1080109Y-3087928D01*
X1077112Y-3091586D01*
X1075436Y-3120339D01*
X1080566Y-3126841D01*
X1080566Y-3133801D01*
X1083360Y-3138982D01*
X1100328Y-3158591D01*
X1104290Y-3159861D01*
X1113231Y-3166872D01*
X1115771Y-3166872D01*
X1125067Y-3173272D01*
X1142187Y-3174847D01*
X1148181Y-3175101D01*
X1162507Y-3171901D01*
X1178102Y-3164128D01*
X1181658Y-3161131D01*
X1191920Y-3151428D01*
X1193850Y-3151428D01*
X1201115Y-3140151D01*
X1204163Y-3134207D01*
X1209192Y-3127908D01*
X1216355Y-3115614D01*
X1224127Y-3106115D01*
X1224127Y-3102965D01*
X1229766Y-3096260D01*
X1231493Y-3090824D01*
X1237183Y-3087116D01*
X1239824Y-3079191D01*
X1243279Y-3076346D01*
X1247140Y-3063189D01*
X1252829Y-3052572D01*
X1252829Y-3048609D01*
X1258824Y-3040583D01*
X1258824Y-3036722D01*
X1267206Y-3020263D01*
X1267256Y-3016707D01*
X1274368Y-3006242D01*
X1274368Y-2999689D01*
X1278940Y-2989122D01*
X1283004Y-2969209D01*
X1288745Y-2955594D01*
X1288796Y-2946654D01*
X1293622Y-2933598D01*
X1295755Y-2926435D01*
X1301851Y-2868269D01*
X1304442Y-2838602D01*
X1304340Y-2832658D01*
X1302156Y-2798216D01*
X1299362Y-2766364D01*
X1295908Y-2753207D01*
X1295908Y-2744520D01*
X1288745Y-2722880D01*
X1288745Y-2716022D01*
X1280210Y-2683154D01*
X1275791Y-2675940D01*
X1271879Y-2662529D01*
X1267460Y-2653385D01*
X1265732Y-2645054D01*
X1259992Y-2634386D01*
X1259992Y-2629611D01*
X1256487Y-2623718D01*
X1250289Y-2610815D01*
X1245666Y-2604973D01*
X1245666Y-2600706D01*
X1239977Y-2594000D01*
X1223162Y-2561894D01*
X1201115Y-2541778D01*
G37*
D10*
G01*
X863600Y-2857500D03*
M02*
